<?xml version="1.0" standalone="no"?>
<!DOCTYPE svg PUBLIC "-//W3C//DTD SVG 20010904//EN"
 "http://www.w3.org/TR/2001/REC-SVG-20010904/DTD/svg10.dtd">
<svg version="1.0" xmlns="http://www.w3.org/2000/svg"
 width="700.000000pt" height="700.000000pt" viewBox="0 0 700.000000 700.000000"
 preserveAspectRatio="xMidYMid meet">
<metadata>
Created by potrace 1.14, written by Peter Selinger 2001-2017
</metadata>
<g transform="translate(0.000000,700.000000) scale(0.100000,-0.100000)"
fill="#000000" stroke="none">
<path d="M752 6313 c-18 -8 -43 -30 -55 -47 l-22 -31 0 -772 c0 -765 0 -772
21 -800 11 -15 36 -36 55 -45 31 -17 90 -18 789 -18 736 0 756 1 788 20 18 11
41 34 52 52 19 32 20 52 20 788 0 699 -1 758 -18 789 -9 19 -30 44 -45 55 -28
21 -37 21 -790 23 -687 3 -765 1 -795 -14z m1553 -78 l25 -24 0 -747 0 -748
-22 -23 -21 -23 -753 0 -753 0 -20 26 c-21 26 -21 33 -21 771 l0 744 25 24 24
25 746 0 746 0 24 -25z"/>
<path d="M800 5465 l0 -735 735 0 735 0 0 735 0 735 -735 0 -735 0 0 -735z
m806 413 c72 -45 125 -67 228 -92 l91 -23 3 -47 c4 -65 -24 -206 -59 -298 -55
-142 -176 -300 -287 -373 -51 -33 -60 -31 -149 43 -163 136 -282 383 -286 594
l-2 81 99 29 c54 16 135 48 180 72 45 24 92 44 107 45 14 0 47 -13 75 -31z"/>
<path d="M1420 5819 c-52 -27 -128 -56 -167 -66 -71 -18 -73 -19 -73 -49 0
-58 31 -198 62 -277 39 -102 112 -210 193 -285 94 -89 94 -89 152 -43 171 135
292 368 297 570 l1 65 -61 12 c-79 16 -171 54 -230 93 -25 17 -53 30 -62 30
-9 -1 -60 -23 -112 -50z m150 -178 c22 -48 24 -49 79 -58 71 -10 77 -30 26
-83 -36 -37 -37 -39 -30 -94 9 -70 -5 -79 -74 -46 l-48 22 -49 -26 c-41 -22
-51 -24 -62 -12 -12 11 -12 24 -3 67 l12 53 -42 42 c-51 52 -44 69 32 79 47 7
51 9 74 56 33 64 54 64 85 0z"/>
<path d="M1505 5592 c-15 -28 -27 -38 -50 -40 -58 -6 -61 -10 -26 -46 29 -30
31 -36 25 -76 -4 -24 -3 -41 2 -39 5 3 22 11 37 19 28 14 33 13 98 -14 14 -6
16 -1 11 39 -4 40 -1 50 22 74 29 30 26 41 -13 41 -34 0 -45 8 -65 48 -9 17
-18 32 -19 32 -1 0 -11 -17 -22 -38z"/>
<path d="M2710 6308 c-18 -13 -43 -36 -54 -51 -21 -28 -21 -33 -21 -790 l0
-762 23 -36 c44 -72 4 -69 842 -69 838 0 798 -3 842 69 l23 36 0 762 c0 757 0
762 -21 790 -11 15 -36 38 -54 51 l-33 22 -757 0 -757 0 -33 -22z m1558 -68
c12 -11 24 -31 27 -43 3 -12 4 -352 3 -755 l-3 -734 -24 -19 c-22 -18 -50 -19
-771 -19 -721 0 -749 1 -771 19 l-24 19 -3 734 c-1 403 0 743 3 756 3 12 14
31 25 42 20 20 37 20 768 20 738 0 749 0 770 -20z"/>
<path d="M2765 6188 c-3 -7 -4 -337 -3 -733 l3 -720 735 0 735 0 0 730 0 730
-733 3 c-581 2 -734 0 -737 -10z m1159 -423 c24 -22 31 -45 27 -85 -3 -30
-134 -466 -147 -492 -8 -15 -23 -32 -33 -38 -27 -14 -655 -14 -683 1 -11 6
-26 26 -34 44 -13 31 -11 43 22 157 104 361 119 403 147 423 18 13 74 15 348
15 l326 0 27 -25z"/>
<path d="M3238 5733 c-8 -10 -47 -128 -86 -262 -67 -226 -71 -246 -57 -267 8
-13 29 -26 47 -29 18 -3 160 -5 315 -3 267 3 283 4 301 23 11 12 49 120 91
264 67 228 70 246 56 268 l-15 23 -319 0 c-290 0 -319 -2 -333 -17z m306 -149
c31 -58 56 -113 56 -123 0 -12 -45 -47 -137 -106 -75 -48 -145 -90 -155 -93
-21 -5 -48 14 -48 35 0 8 56 50 125 95 69 45 125 86 125 92 0 6 -18 45 -40 86
-51 96 -52 120 -4 120 18 0 33 -19 78 -106z m22 -268 c44 -34 -37 -70 -113
-51 -28 7 -31 39 -5 54 25 15 95 13 118 -3z"/>
<path d="M4680 6312 c-19 -9 -45 -32 -57 -51 l-23 -34 0 -761 c0 -742 1 -762
20 -794 11 -18 34 -41 52 -52 32 -19 52 -20 788 -20 699 0 758 1 789 18 19 9
44 30 55 45 21 28 21 35 21 800 l0 772 -22 31 c-48 67 -12 64 -840 64 -692 0
-751 -1 -783 -18z m1555 -77 l25 -24 0 -744 c0 -738 0 -745 -21 -771 l-20 -26
-752 0 -751 0 -23 22 -23 21 0 753 0 753 26 20 c26 21 33 21 771 21 l744 0 24
-25z"/>
<path d="M4730 5465 l0 -735 735 0 735 0 0 735 0 735 -735 0 -735 0 0 -735z
m949 391 c81 -22 143 -58 169 -96 21 -32 22 -40 22 -295 0 -256 -1 -263 -23
-296 -49 -73 -196 -119 -382 -119 -177 0 -316 40 -375 107 l-30 34 0 274 0
274 30 34 c35 40 106 73 199 93 84 17 314 12 390 -10z"/>
<path d="M5335 5833 c-94 -12 -207 -60 -226 -94 -41 -77 96 -144 315 -155 171
-9 350 37 392 101 16 25 16 27 -2 53 -45 61 -194 103 -357 101 -51 -1 -105 -4
-122 -6z m199 -19 c9 -3 16 -12 16 -20 0 -11 -17 -14 -72 -14 -40 0 -102 -5
-138 -10 -66 -9 -95 -1 -73 21 20 20 228 38 267 23z m151 -25 c5 -6 5 -13 -3
-21 -18 -18 -96 2 -100 26 -4 17 1 18 45 11 26 -3 52 -11 58 -16z"/>
<path d="M5100 5584 c0 -63 13 -82 82 -114 83 -40 179 -54 323 -47 148 6 243
33 292 82 28 28 33 40 33 79 0 25 -2 46 -4 46 -2 0 -23 -11 -47 -24 -80 -44
-161 -60 -314 -60 -152 0 -231 14 -317 59 l-48 24 0 -45z"/>
<path d="M5100 5414 c0 -46 4 -55 31 -78 44 -37 89 -54 187 -71 47 -8 89 -15
93 -15 12 0 12 -27 0 -34 -18 -11 -188 26 -248 54 l-63 29 0 -45 c0 -63 13
-82 82 -114 83 -40 179 -54 323 -47 148 6 243 33 292 82 28 28 33 40 33 79 0
49 -4 53 -34 31 -11 -8 -26 -15 -33 -15 -24 0 -14 23 27 60 37 34 40 41 40 88
l0 51 -57 -30 c-79 -40 -177 -59 -308 -59 -129 0 -228 19 -307 58 l-58 29 0
-53z m608 -146 c-2 -24 -7 -43 -13 -43 -5 0 -11 19 -13 43 -3 33 0 42 13 42
13 0 16 -9 13 -42z m-73 -18 c0 -25 -5 -36 -17 -38 -15 -3 -18 4 -18 38 0 34
3 41 18 38 12 -2 17 -13 17 -38z m-157 -12 c-4 -51 -31 -61 -36 -15 -4 37 4
57 23 57 13 0 15 -9 13 -42z m82 2 c0 -33 -3 -40 -20 -40 -16 0 -20 7 -20 33
0 36 6 47 27 47 9 0 13 -13 13 -40z"/>
<path d="M775 4359 c-40 -12 -58 -27 -84 -69 -21 -35 -21 -38 -21 -789 0 -746
0 -754 21 -791 11 -20 35 -45 52 -56 31 -18 64 -19 782 -22 l750 -2 44 22 c86
44 81 -9 81 848 0 856 5 804 -80 848 l-44 22 -736 -1 c-417 0 -748 -5 -765
-10z m1508 -71 c48 -25 46 -1 47 -785 0 -408 -3 -749 -6 -758 -18 -45 -20 -45
-789 -45 -747 0 -752 0 -782 39 -10 12 -12 191 -12 761 0 783 -2 762 44 788
29 16 1467 17 1498 0z"/>
<path d="M805 4228 c-3 -7 -4 -339 -3 -738 l3 -725 733 -3 732 -2 0 740 0 740
-730 0 c-575 0 -732 -3 -735 -12z"/>
<path d="M2720 4348 c-33 -17 -51 -35 -67 -68 l-23 -44 0 -736 0 -736 23 -44
c13 -26 36 -53 57 -65 34 -20 50 -20 790 -20 741 0 756 0 790 20 19 12 43 36
55 55 20 34 20 49 20 790 0 740 0 756 -20 790 -12 21 -39 44 -65 58 l-44 22
-736 0 -736 0 -44 -22z m1551 -77 l29 -29 0 -742 0 -742 -29 -29 -29 -29 -742
0 -742 0 -29 29 -29 29 0 742 0 742 29 29 29 29 742 0 742 0 29 -29z"/>
<path d="M2765 4228 c-3 -7 -4 -339 -3 -738 l3 -725 735 0 735 0 0 735 0 735
-733 3 c-581 2 -734 0 -737 -10z m801 -283 c20 -20 24 -34 23 -68 -2 -24 0
-48 4 -54 10 -15 -7 -19 -88 -18 l-70 1 -3 57 c-2 50 1 61 22 82 33 33 79 33
112 0z m-156 -215 c-14 -27 -26 -32 -39 -17 -16 20 15 62 35 46 10 -8 11 -16
4 -29z m250 -6 c0 -23 -29 -22 -44 1 -15 22 -14 25 1 34 18 9 42 -11 43 -35z
m-310 -71 c0 -29 -41 -55 -54 -35 -9 15 23 52 39 46 8 -4 15 -8 15 -11z m374
-34 c-9 -16 -33 -10 -45 12 -9 17 -8 23 2 30 16 10 53 -27 43 -42z m-448 -61
c25 -41 18 -139 -13 -187 -2 -2 -14 2 -28 9 -19 10 -27 10 -39 1 -17 -14 -39
-5 -33 12 2 7 -3 20 -11 30 -38 43 1 127 59 127 15 0 31 5 34 10 8 14 22 13
31 -2z m499 2 c3 -5 19 -10 36 -10 56 0 95 -69 65 -115 -9 -13 -13 -31 -10
-39 4 -10 -1 -18 -12 -23 -10 -4 -19 -2 -22 5 -2 7 -12 12 -22 12 -10 0 -20
-5 -22 -12 -3 -7 -12 -9 -22 -5 -11 4 -16 13 -12 22 3 8 2 15 -3 15 -5 0 -14
13 -21 29 -9 23 -9 38 1 68 6 21 13 44 15 51 4 14 20 16 29 2z m-467 -291
c-21 -14 -27 -11 -34 17 -10 38 17 51 34 17 12 -21 12 -27 0 -34z m-148 37 c0
-25 -12 -46 -25 -46 -21 0 -27 17 -15 40 12 23 40 27 40 6z m592 -11 c-5 -28
-16 -37 -35 -29 -13 5 -14 10 -5 30 14 29 45 28 40 -1z m153 4 c9 -29 -15 -45
-32 -22 -19 25 -16 43 6 43 11 0 23 -9 26 -21z m-795 -108 c0 -9 7 -25 15 -35
37 -49 -4 -126 -67 -126 -41 0 -78 40 -78 83 0 37 18 58 72 86 37 19 58 17 58
-8z m240 18 c0 -5 14 -15 31 -21 58 -20 70 -100 21 -138 -74 -59 -171 36 -114
111 10 13 21 32 25 42 7 18 37 24 37 6z m349 2 c7 -5 10 -14 7 -20 -4 -6 0
-21 8 -33 38 -54 -5 -128 -73 -128 -27 0 -68 36 -73 64 -9 44 16 83 61 97 23
7 41 16 41 21 0 10 11 10 29 -1z m241 -1 c0 -6 8 -13 18 -17 63 -22 82 -94 37
-138 -49 -50 -135 -15 -135 54 0 17 11 42 26 60 14 17 23 31 19 31 -3 0 -3 5
0 10 8 13 35 13 35 0z"/>
<path d="M4684 4351 c-24 -11 -50 -33 -62 -53 l-22 -35 0 -763 c0 -750 0 -763
20 -796 12 -18 40 -42 64 -54 43 -20 50 -20 792 -18 717 3 750 4 781 22 17 11
41 36 52 56 21 37 21 45 21 790 0 745 0 753 -21 790 -11 20 -35 45 -52 56 -31
18 -64 19 -782 21 -715 3 -752 2 -791 -16z m1545 -77 l31 -26 0 -748 0 -748
-31 -26 -31 -26 -729 0 c-773 0 -775 0 -793 45 -3 9 -6 351 -6 759 0 783 -1
759 45 784 14 8 241 11 752 12 l731 0 31 -26z"/>
<path d="M4730 3500 l0 -740 733 2 732 3 0 735 0 735 -732 3 -733 2 0 -740z"/>
<path d="M739 2377 c-73 -48 -69 -3 -67 -854 3 -752 3 -762 24 -790 11 -15 36
-36 55 -45 31 -17 90 -18 784 -18 836 0 794 -3 842 69 l23 34 0 761 c0 742 -1
762 -20 794 -11 18 -34 41 -52 52 -32 19 -52 20 -794 20 l-761 0 -34 -23z
m1566 -72 l25 -24 0 -747 0 -748 -22 -23 -21 -23 -749 0 -749 0 -24 25 -25 24
0 746 0 746 25 24 24 25 746 0 746 0 24 -25z"/>
<path d="M800 1535 l0 -735 735 0 735 0 0 735 0 735 -735 0 -735 0 0 -735z"/>
<path d="M2713 2384 c-18 -9 -43 -33 -55 -53 l-23 -36 0 -762 c0 -754 0 -762
21 -789 11 -15 33 -37 48 -48 27 -21 35 -21 796 -21 761 0 769 0 796 21 15 11
37 33 48 48 21 27 21 35 21 789 l0 762 -23 36 c-44 72 -4 69 -844 69 -670 0
-757 -2 -785 -16z m1557 -74 c11 -11 22 -30 25 -42 3 -13 4 -353 3 -756 l-3
-734 -24 -19 c-22 -18 -50 -19 -771 -19 -721 0 -749 1 -771 19 l-24 19 -3 734
c-1 403 0 743 3 756 3 12 14 31 25 42 20 20 37 20 770 20 733 0 750 0 770 -20z"/>
<path d="M2765 2258 c-3 -7 -4 -337 -3 -733 l3 -720 735 0 735 0 0 730 0 730
-733 3 c-581 2 -734 0 -737 -10z m936 -345 c149 -73 172 -88 184 -116 24 -59
107 -368 101 -382 -7 -19 -237 -328 -250 -337 -6 -5 -114 -7 -241 -5 l-230 2
-113 150 c-62 83 -119 162 -128 177 -13 26 -12 38 26 170 23 79 48 167 56 196
l15 53 190 94 c105 52 196 92 204 88 9 -3 92 -43 186 -90z"/>
<path d="M3320 1877 l-165 -82 -52 -183 -52 -184 111 -151 c61 -84 118 -158
126 -164 11 -10 69 -13 208 -13 106 0 199 3 208 6 9 3 68 77 132 165 l116 159
-46 162 c-26 90 -51 173 -56 185 -6 16 -59 48 -170 103 -88 44 -168 80 -177
79 -10 0 -92 -37 -183 -82z m190 -39 c0 -55 5 -61 60 -77 25 -7 62 -23 82 -37
21 -13 42 -24 47 -24 5 0 23 14 40 31 28 27 51 32 51 9 0 -4 -16 -24 -35 -43
l-36 -36 22 -42 c12 -24 24 -69 27 -102 5 -63 20 -77 78 -77 15 0 24 -6 24
-15 0 -12 -10 -14 -53 -9 l-54 6 -26 -44 c-14 -25 -42 -59 -61 -76 -33 -29
-34 -32 -24 -69 7 -21 18 -46 26 -55 14 -17 9 -38 -8 -38 -6 0 -16 15 -24 33
-8 17 -23 42 -34 54 -17 19 -24 20 -62 12 -24 -5 -63 -7 -87 -3 -48 7 -58 0
-93 -69 -8 -17 -19 -29 -25 -28 -11 2 -11 7 8 76 l14 50 -44 39 c-24 21 -51
52 -59 68 -14 27 -19 30 -57 25 -23 -2 -53 -8 -66 -12 -19 -7 -22 -5 -19 11 2
12 13 20 28 22 14 2 37 8 53 14 25 9 27 15 27 62 0 29 7 74 17 101 l16 49 -43
37 c-37 32 -41 39 -27 45 10 4 25 0 35 -9 45 -39 60 -40 102 -6 22 18 63 40
92 50 51 17 53 19 56 56 3 48 9 63 22 63 5 0 10 -19 10 -42z"/>
<path d="M3410 1714 c-34 -14 -80 -51 -80 -63 0 -13 110 -65 119 -56 5 6 12
38 16 73 8 69 5 72 -55 46z"/>
<path d="M3526 1668 c4 -35 11 -66 17 -69 13 -9 109 60 104 75 -4 14 -86 56
-110 56 -16 0 -17 -6 -11 -62z"/>
<path d="M3642 1579 c-24 -27 -42 -54 -40 -60 4 -11 93 -49 116 -49 15 0 16
37 1 95 -17 68 -28 69 -77 14z"/>
<path d="M3281 1579 c-12 -36 -15 -119 -3 -119 19 0 107 39 110 49 3 10 -79
101 -91 101 -3 0 -10 -14 -16 -31z"/>
<path d="M3470 1525 c-6 -8 -9 -23 -5 -35 8 -25 51 -27 64 -2 20 38 -31 71
-59 37z"/>
<path d="M3343 1423 c-29 -2 -53 -7 -53 -10 0 -15 44 -74 68 -92 l27 -19 16
46 c9 26 19 55 24 65 5 13 3 17 -11 15 -11 -1 -43 -3 -71 -5z"/>
<path d="M3572 1422 c2 -4 12 -30 22 -57 11 -28 21 -51 22 -53 6 -9 56 34 74
63 31 51 27 55 -51 55 -39 0 -69 -3 -67 -8z"/>
<path d="M3463 1341 l-31 -59 34 -6 c35 -7 104 1 104 13 0 3 -14 26 -30 50
-17 24 -30 48 -30 53 0 22 -18 2 -47 -51z"/>
<path d="M4672 2380 c-18 -11 -41 -34 -52 -52 -19 -32 -20 -52 -20 -794 l0
-761 23 -34 c48 -73 3 -69 854 -67 752 3 762 3 790 24 15 11 36 36 45 55 17
31 18 90 18 784 0 836 3 794 -69 842 l-34 23 -761 0 c-742 0 -762 -1 -794 -20z
m1563 -75 l25 -24 0 -746 0 -746 -25 -24 -24 -25 -747 0 -748 0 -23 22 -23 21
0 749 0 749 25 24 24 25 746 0 746 0 24 -25z"/>
<path d="M4730 1535 l0 -735 735 0 735 0 0 735 0 735 -735 0 -735 0 0 -735z"/>
</g>
</svg>
