<svg width="2600" height="500" xmlns="http://www.w3.org/2000/svg" xml:space="preserve" version="1.1">

 <g>
  <title>Layer 1</title>
  <g id="svg_3">
   <g id="svg_4">
    <g id="svg_5">
     <path id="svg_6" fill="#F3704B" d="m304,108.35001l71.7,0c4.2,0 7.6,3.4 7.6,7.6l0,71.7c0,4.2 -3.4,7.6 -7.6,7.6l-71.7,0c-4.2,0 -7.6,-3.4 -7.6,-7.6l0,-71.7c0,-4.2 3.4,-7.6 7.6,-7.6z" class="st0"/>
    </g>
    <g id="svg_7">
     <path id="svg_8" fill="#F3704B" d="m205.8,108.35001l71.7,0c4.2,0 7.6,3.4 7.6,7.6l0,71.7c0,4.2 -3.4,7.6 -7.6,7.6l-71.7,0c-4.2,0 -7.6,-3.4 -7.6,-7.6l0,-71.7c0,-4.2 3.4,-7.6 7.6,-7.6z" class="st0"/>
    </g>
    <g id="svg_9">
     <path id="svg_10" fill="#F3704B" d="m107.6,108.35001l71.7,0c4.2,0 7.6,3.4 7.6,7.6l0,71.7c0,4.2 -3.4,7.6 -7.6,7.6l-71.7,0c-4.2,0 -7.6,-3.4 -7.6,-7.6l0,-71.7c0,-4.2 3.4,-7.6 7.6,-7.6z" class="st0"/>
    </g>
    <g id="svg_11">
     <path id="svg_12" fill="#7B7C7F" d="m304,206.55001l71.7,0c4.2,0 7.6,3.4 7.6,7.6l0,71.7c0,4.2 -3.4,7.6 -7.6,7.6l-71.7,0c-4.2,0 -7.6,-3.4 -7.6,-7.6l0,-71.7c0,-4.2 3.4,-7.6 7.6,-7.6z" class="st1"/>
    </g>
    <g id="svg_13">
     <path id="svg_14" fill="#F3704B" d="m205.8,206.55001l71.7,0c4.2,0 7.6,3.4 7.6,7.6l0,71.7c0,4.2 -3.4,7.6 -7.6,7.6l-71.7,0c-4.2,0 -7.6,-3.4 -7.6,-7.6l0,-71.7c0,-4.2 3.4,-7.6 7.6,-7.6z" class="st0"/>
    </g>
    <g id="svg_15">
     <path id="svg_16" fill="#7B7C7F" d="m107.6,206.55001l71.7,0c4.2,0 7.6,3.4 7.6,7.6l0,71.7c0,4.2 -3.4,7.6 -7.6,7.6l-71.7,0c-4.2,0 -7.6,-3.4 -7.6,-7.6l0,-71.7c0,-4.2 3.4,-7.6 7.6,-7.6z" class="st1"/>
    </g>
    <g id="svg_17">
     <path id="svg_18" fill="#7B7C7F" d="m304,304.75001l71.7,0c4.2,0 7.6,3.4 7.6,7.6l0,71.7c0,4.2 -3.4,7.6 -7.6,7.6l-71.7,0c-4.2,0 -7.6,-3.4 -7.6,-7.6l0,-71.7c0,-4.2 3.4,-7.6 7.6,-7.6z" class="st1"/>
    </g>
    <g id="svg_19">
     <path id="svg_20" fill="#F3704B" d="m205.8,304.75001l71.7,0c4.2,0 7.6,3.4 7.6,7.6l0,71.7c0,4.2 -3.4,7.6 -7.6,7.6l-71.7,0c-4.2,0 -7.6,-3.4 -7.6,-7.6l0,-71.7c0,-4.2 3.4,-7.6 7.6,-7.6z" class="st0"/>
    </g>
    <g id="svg_21">
     <path id="svg_22" fill="#7B7C7F" d="m107.6,304.75001l71.7,0c4.2,0 7.6,3.4 7.6,7.6l0,71.7c0,4.2 -3.4,7.6 -7.6,7.6l-71.7,0c-4.2,0 -7.6,-3.4 -7.6,-7.6l0,-71.7c0,-4.2 3.4,-7.6 7.6,-7.6z" class="st1"/>
    </g>
    <g id="svg_23">
     <g id="svg_24">
      <path id="svg_25" fill="#FFFFFF" d="m375.7,114.75001c0.7,0 1.2,0.6 1.2,1.2l0,71.7c0,0.7 -0.6,1.2 -1.2,1.2l-71.7,0c-0.7,0 -1.2,-0.6 -1.2,-1.2l0,-71.7c0,-0.7 0.6,-1.2 1.2,-1.2l71.7,0m0,-2.7l-71.7,0c-2.1,0 -3.9,1.7 -3.9,3.9l0,71.7c0,2.1 1.7,3.9 3.9,3.9l71.7,0c2.1,0 3.9,-1.7 3.9,-3.9l0,-71.7c0,-2.1 -1.8,-3.9 -3.9,-3.9l0,0z" class="st2"/>
     </g>
     <g id="svg_26">
      <path id="svg_27" fill="#FFFFFF" d="m277.5,114.75001c0.7,0 1.2,0.6 1.2,1.2l0,71.7c0,0.7 -0.6,1.2 -1.2,1.2l-71.7,0c-0.7,0 -1.2,-0.6 -1.2,-1.2l0,-71.7c0,-0.7 0.6,-1.2 1.2,-1.2l71.7,0m0,-2.7l-71.7,0c-2.1,0 -3.9,1.7 -3.9,3.9l0,71.7c0,2.1 1.7,3.9 3.9,3.9l71.7,0c2.1,0 3.9,-1.7 3.9,-3.9l0,-71.7c0,-2.1 -1.8,-3.9 -3.9,-3.9l0,0z" class="st2"/>
     </g>
     <g id="svg_28">
      <path id="svg_29" fill="#FFFFFF" d="m179.3,114.75001c0.7,0 1.2,0.6 1.2,1.2l0,71.7c0,0.7 -0.6,1.2 -1.2,1.2l-71.7,0c-0.7,0 -1.2,-0.6 -1.2,-1.2l0,-71.7c0,-0.7 0.6,-1.2 1.2,-1.2l71.7,0m0,-2.7l-71.7,0c-2.1,0 -3.9,1.7 -3.9,3.9l0,71.7c0,2.1 1.7,3.9 3.9,3.9l71.7,0c2.1,0 3.9,-1.7 3.9,-3.9l0,-71.7c-0.1,-2.1 -1.8,-3.9 -3.9,-3.9l0,0z" class="st2"/>
     </g>
     <g id="svg_30">
      <path id="svg_31" fill="#FFFFFF" d="m375.7,212.95001c0.7,0 1.2,0.6 1.2,1.2l0,71.7c0,0.7 -0.6,1.2 -1.2,1.2l-71.7,0c-0.7,0 -1.2,-0.6 -1.2,-1.2l0,-71.7c0,-0.7 0.6,-1.2 1.2,-1.2l71.7,0m0,-2.7l-71.7,0c-2.1,0 -3.9,1.7 -3.9,3.9l0,71.7c0,2.1 1.7,3.9 3.9,3.9l71.7,0c2.1,0 3.9,-1.7 3.9,-3.9l0,-71.7c0,-2.1 -1.8,-3.9 -3.9,-3.9l0,0z" class="st2"/>
     </g>
     <g id="svg_32">
      <path id="svg_33" fill="#FFFFFF" d="m277.5,212.95001c0.7,0 1.2,0.6 1.2,1.2l0,71.7c0,0.7 -0.6,1.2 -1.2,1.2l-71.7,0c-0.7,0 -1.2,-0.6 -1.2,-1.2l0,-71.7c0,-0.7 0.6,-1.2 1.2,-1.2l71.7,0m0,-2.7l-71.7,0c-2.1,0 -3.9,1.7 -3.9,3.9l0,71.7c0,2.1 1.7,3.9 3.9,3.9l71.7,0c2.1,0 3.9,-1.7 3.9,-3.9l0,-71.7c0,-2.1 -1.8,-3.9 -3.9,-3.9l0,0z" class="st2"/>
     </g>
     <g id="svg_34">
      <path id="svg_35" fill="#FFFFFF" d="m179.3,212.95001c0.7,0 1.2,0.6 1.2,1.2l0,71.7c0,0.7 -0.6,1.2 -1.2,1.2l-71.7,0c-0.7,0 -1.2,-0.6 -1.2,-1.2l0,-71.7c0,-0.7 0.6,-1.2 1.2,-1.2l71.7,0m0,-2.7l-71.7,0c-2.1,0 -3.9,1.7 -3.9,3.9l0,71.7c0,2.1 1.7,3.9 3.9,3.9l71.7,0c2.1,0 3.9,-1.7 3.9,-3.9l0,-71.7c-0.1,-2.1 -1.8,-3.9 -3.9,-3.9l0,0z" class="st2"/>
     </g>
     <g id="svg_36">
      <path id="svg_37" fill="#FFFFFF" d="m375.7,311.15001c0.7,0 1.2,0.6 1.2,1.2l0,71.7c0,0.7 -0.6,1.2 -1.2,1.2l-71.7,0c-0.7,0 -1.2,-0.6 -1.2,-1.2l0,-71.7c0,-0.7 0.6,-1.2 1.2,-1.2l71.7,0m0,-2.6l-71.7,0c-2.1,0 -3.9,1.7 -3.9,3.9l0,71.7c0,2.1 1.7,3.9 3.9,3.9l71.7,0c2.1,0 3.9,-1.7 3.9,-3.9l0,-71.7c0,-2.2 -1.8,-3.9 -3.9,-3.9l0,0z" class="st2"/>
     </g>
     <g id="svg_38">
      <path id="svg_39" fill="#FFFFFF" d="m277.5,311.15001c0.7,0 1.2,0.6 1.2,1.2l0,71.7c0,0.7 -0.6,1.2 -1.2,1.2l-71.7,0c-0.7,0 -1.2,-0.6 -1.2,-1.2l0,-71.7c0,-0.7 0.6,-1.2 1.2,-1.2l71.7,0m0,-2.6l-71.7,0c-2.1,0 -3.9,1.7 -3.9,3.9l0,71.7c0,2.1 1.7,3.9 3.9,3.9l71.7,0c2.1,0 3.9,-1.7 3.9,-3.9l0,-71.7c0,-2.2 -1.8,-3.9 -3.9,-3.9l0,0z" class="st2"/>
     </g>
     <g id="svg_40">
      <path id="svg_41" fill="#FFFFFF" d="m179.3,311.15001c0.7,0 1.2,0.6 1.2,1.2l0,71.7c0,0.7 -0.6,1.2 -1.2,1.2l-71.7,0c-0.7,0 -1.2,-0.6 -1.2,-1.2l0,-71.7c0,-0.7 0.6,-1.2 1.2,-1.2l71.7,0m0,-2.6l-71.7,0c-2.1,0 -3.9,1.7 -3.9,3.9l0,71.7c0,2.1 1.7,3.9 3.9,3.9l71.7,0c2.1,0 3.9,-1.7 3.9,-3.9l0,-71.7c-0.1,-2.2 -1.8,-3.9 -3.9,-3.9l0,0z" class="st2"/>
     </g>
    </g>
    <g id="svg_42">
     <path id="svg_43" stroke-miterlimit="10" stroke-linejoin="round" stroke-linecap="round" stroke-width="1.7185" stroke="#FFFFFF" fill="none" d="m252.7,167.25001l-29,0c-2.6,0 -4.4,-2.5 -3.7,-4.9l6.9,-23.3c0.5,-1.6 2,-2.7 3.7,-2.7l29,0c2.6,0 4.4,2.5 3.7,4.9l-6.9,23.3c-0.6,1.6 -2,2.7 -3.7,2.7z" class="st3"/>
     <polyline id="svg_44" stroke-miterlimit="10" stroke-linejoin="round" stroke-linecap="round" stroke-width="3.437" stroke="#FFFFFF" fill="none" points="239.9000244140625,142.14999389648438 244.9000244140625,151.75 231.5999755859375,160.35000610351562 " class="st4"/>
     <line id="svg_45" stroke-miterlimit="10" stroke-linejoin="round" stroke-linecap="round" stroke-width="3.0074" stroke="#FFFFFF" fill="none" y2="160.35001" x2="244" y1="160.35001" x1="239.7" class="st5"/>
    </g>
    <g id="svg_46">
     <circle id="svg_47" fill="#FFFFFF" r="4" cy="230.65001" cx="242.2" class="st2"/>
     <circle id="svg_48" fill="#FFFFFF" r="4" cy="269.35001" cx="219.6" class="st2"/>
     <circle id="svg_49" fill="#FFFFFF" r="4" cy="269.35001" cx="234.3" class="st2"/>
     <g id="svg_50">
      <circle id="svg_51" fill="#FFFFFF" r="4" cy="251.45001" cx="227.5" class="st2"/>
      <circle id="svg_52" fill="#FFFFFF" r="4" cy="251.45001" cx="256.9" class="st2"/>
     </g>
     <circle id="svg_53" fill="#FFFFFF" r="4" cy="269.35001" cx="249" class="st2"/>
     <circle id="svg_54" fill="#FFFFFF" r="4" cy="269.35001" cx="263.7" class="st2"/>
     <g id="svg_55">
      <g id="svg_56">
       <line id="svg_57" stroke-miterlimit="10" stroke-linecap="square" stroke-width="1.7185" stroke="#FFFFFF" fill="none" y2="247.65001" x2="229.8" y1="248.05001" x1="229.5" class="st6"/>
       <line id="svg_58" stroke-dasharray="0.9842,4.9209" stroke-miterlimit="10" stroke-linecap="square" stroke-width="1.7185" stroke="#FFFFFF" fill="none" y2="235.85001" x2="237.8" y1="243.55001" x1="232.5" class="st7"/>
       <line id="svg_59" stroke-miterlimit="10" stroke-linecap="square" stroke-width="1.7185" stroke="#FFFFFF" fill="none" y2="233.45001" x2="239.4" y1="233.85001" x1="239.1" class="st6"/>
      </g>
     </g>
     <g id="svg_60">
      <g id="svg_61">
       <line id="svg_62" stroke-miterlimit="10" stroke-linecap="square" stroke-width="1.7185" stroke="#FFFFFF" fill="none" y2="247.65001" x2="254.7" y1="248.05001" x1="254.9" class="st6"/>
       <line id="svg_63" stroke-dasharray="0.9842,4.9209" stroke-miterlimit="10" stroke-linecap="square" stroke-width="1.7185" stroke="#FFFFFF" fill="none" y2="235.85001" x2="246.7" y1="243.55001" x1="251.9" class="st7"/>
       <line id="svg_64" stroke-miterlimit="10" stroke-linecap="square" stroke-width="1.7185" stroke="#FFFFFF" fill="none" y2="233.45001" x2="245.1" y1="233.85001" x1="245.3" class="st6"/>
      </g>
     </g>
     <g id="svg_65">
      <g id="svg_66">
       <line id="svg_67" stroke-miterlimit="10" stroke-linecap="square" stroke-width="1.7185" stroke="#FFFFFF" fill="none" y2="265.25001" x2="221.2" y1="265.65001" x1="221.1" class="st6"/>
       <line id="svg_68" stroke-dasharray="0.9768,4.8841" stroke-miterlimit="10" stroke-linecap="square" stroke-width="1.7185" stroke="#FFFFFF" fill="none" y2="257.75001" x2="224.7" y1="260.85001" x1="223.3" class="st8"/>
       <line id="svg_69" stroke-miterlimit="10" stroke-linecap="square" stroke-width="1.7185" stroke="#FFFFFF" fill="none" y2="255.15001" x2="225.9" y1="255.45001" x1="225.7" class="st6"/>
      </g>
     </g>
     <g id="svg_70">
      <g id="svg_71">
       <line id="svg_72" stroke-miterlimit="10" stroke-linecap="square" stroke-width="1.7185" stroke="#FFFFFF" fill="none" y2="265.05001" x2="233.2" y1="265.45001" x1="233.4" class="st6"/>
       <line id="svg_73" stroke-dasharray="0.9386,4.6928" stroke-miterlimit="10" stroke-linecap="square" stroke-width="1.7185" stroke="#FFFFFF" fill="none" y2="257.65001" x2="230.2" y1="260.75001" x1="231.4" class="st9"/>
       <line id="svg_74" stroke-miterlimit="10" stroke-linecap="square" stroke-width="1.7185" stroke="#FFFFFF" fill="none" y2="255.15001" x2="229.2" y1="255.55001" x1="229.3" class="st6"/>
      </g>
     </g>
     <g id="svg_75">
      <g id="svg_76">
       <line id="svg_77" stroke-miterlimit="10" stroke-linecap="square" stroke-width="1.7185" stroke="#FFFFFF" fill="none" y2="265.25001" x2="250.9" y1="265.65001" x1="250.7" class="st6"/>
       <line id="svg_78" stroke-dasharray="0.9768,4.8841" stroke-miterlimit="10" stroke-linecap="square" stroke-width="1.7185" stroke="#FFFFFF" fill="none" y2="257.75001" x2="254.4" y1="260.85001" x1="253" class="st8"/>
       <line id="svg_79" stroke-miterlimit="10" stroke-linecap="square" stroke-width="1.7185" stroke="#FFFFFF" fill="none" y2="255.15001" x2="255.6" y1="255.45001" x1="255.4" class="st6"/>
      </g>
     </g>
     <g id="svg_80">
      <g id="svg_81">
       <line id="svg_82" stroke-miterlimit="10" stroke-linecap="square" stroke-width="1.7185" stroke="#FFFFFF" fill="none" y2="265.05001" x2="262.9" y1="265.45001" x1="263" class="st6"/>
       <line id="svg_83" stroke-dasharray="0.9386,4.6928" stroke-miterlimit="10" stroke-linecap="square" stroke-width="1.7185" stroke="#FFFFFF" fill="none" y2="257.65001" x2="259.9" y1="260.75001" x1="261.1" class="st9"/>
       <line id="svg_84" stroke-miterlimit="10" stroke-linecap="square" stroke-width="1.7185" stroke="#FFFFFF" fill="none" y2="255.15001" x2="258.8" y1="255.55001" x1="259" class="st6"/>
      </g>
     </g>
    </g>
    <g id="svg_85">
     <path id="svg_86" stroke-miterlimit="10" stroke-linejoin="round" stroke-linecap="round" stroke-width="1.7185" stroke="#FFFFFF" fill="none" d="m231.6,370.75001c-0.6,0 -1.3,-0.3 -1.6,-0.8l-11.3,-15.4c-0.4,-0.5 -0.5,-1.2 -0.3,-1.8l4.9,-17.3c0.2,-0.6 0.5,-1 1.1,-1.3l16.4,-8.2c0.6,-0.3 1.2,-0.3 1.8,0l16.4,8.2c0.5,0.3 0.9,0.7 1.1,1.3l4.9,17.3c0.2,0.6 0.1,1.3 -0.3,1.8l-11.3,15.4c-0.4,0.5 -1,0.8 -1.6,0.8l-20.2,0z" class="st3"/>
     <circle id="svg_87" stroke-miterlimit="10" stroke-linejoin="round" stroke-linecap="round" stroke-width="1.7185" stroke="#FFFFFF" fill="none" r="12.5" cy="349.85001" cx="241.6" class="st3"/>
     <g id="svg_88">
      <g id="svg_89">
       <path id="svg_90" fill="#FFFFFF" d="m242.2,332.45001c-0.3,0.6 -0.3,1.1 -0.2,1.7c0.1,0.6 0.2,1.1 0.4,1.7c0.1,0.6 0.3,1.1 0.3,1.7c0.1,0.6 -0.2,1.1 -0.2,1.7c0,1.1 0.6,2.3 0.6,3.4c0.1,1.1 0.1,2.3 0,3.4c-0.1,0.9 -0.8,1.6 -1.7,1.5c-0.8,-0.1 -1.4,-0.7 -1.5,-1.5c-0.1,-1.1 0,-2.3 0,-3.4c0,-1.1 0.6,-2.3 0.6,-3.4c0,-0.6 -0.3,-1.1 -0.2,-1.7c0,-0.6 0.2,-1.1 0.3,-1.7c0.1,-0.6 0.3,-1.1 0.4,-1.7c0.1,-0.6 0.1,-1.1 -0.2,-1.7c-0.2,-0.4 0,-0.9 0.4,-1.1c0.4,-0.2 0.9,0 1.1,0.4c0,0.2 0,0.5 -0.1,0.7z" class="st2"/>
      </g>
      <g id="svg_91">
       <path id="svg_92" fill="#FFFFFF" d="m227.6,338.85001c0.3,0.6 0.7,0.9 1.2,1.2c0.5,0.3 1,0.5 1.6,0.8c0.5,0.2 1.1,0.5 1.6,0.8c0.5,0.3 0.8,0.9 1.2,1.2c0.9,0.7 2.2,0.9 3.1,1.7c1,0.6 1.9,1.3 2.7,2.1c0.7,0.6 0.7,1.6 0.1,2.3c-0.5,0.6 -1.4,0.7 -2.1,0.3c-1,-0.6 -1.8,-1.4 -2.7,-2.2c-0.9,-0.7 -1.5,-1.9 -2.4,-2.6c-0.4,-0.4 -1.1,-0.5 -1.5,-0.9c-0.4,-0.4 -0.8,-0.8 -1.2,-1.3c-0.4,-0.5 -0.7,-0.9 -1.1,-1.3c-0.4,-0.4 -0.9,-0.8 -1.5,-0.9c-0.4,-0.1 -0.7,-0.5 -0.6,-1s0.5,-0.7 1,-0.6c0.3,0 0.5,0.2 0.6,0.4z" class="st2"/>
      </g>
      <g id="svg_93">
       <path id="svg_94" fill="#FFFFFF" d="m223.7,354.35001c0.7,0.1 1.3,0 1.8,-0.2c0.6,-0.2 1.1,-0.5 1.7,-0.8c0.6,-0.3 1.1,-0.6 1.7,-0.8c0.6,-0.2 1.2,-0.1 1.8,-0.2c1.2,-0.3 2.2,-1.2 3.4,-1.5c1.2,-0.4 2.3,-0.7 3.5,-0.9c0.9,-0.2 1.7,0.4 1.9,1.3c0.1,0.8 -0.3,1.6 -1.1,1.8c-1.2,0.4 -2.4,0.6 -3.6,0.8c-1.2,0.3 -2.5,0 -3.7,0.3c-0.6,0.1 -1.1,0.6 -1.7,0.7c-0.6,0.1 -1.2,0.1 -1.9,0.1c-0.6,0 -1.3,0 -1.9,0.1c-0.6,0.1 -1.2,0.2 -1.7,0.6c-0.4,0.3 -0.9,0.2 -1.1,-0.1c-0.3,-0.4 -0.2,-0.9 0.1,-1.1c0.3,-0.1 0.6,-0.2 0.8,-0.1z" class="st2"/>
      </g>
      <g id="svg_95">
       <path id="svg_96" fill="#FFFFFF" d="m233.4,366.95001c0.5,-0.4 0.8,-1 0.9,-1.6c0.2,-0.6 0.3,-1.2 0.4,-1.8c0.1,-0.6 0.2,-1.2 0.4,-1.8c0.2,-0.6 0.7,-1 1,-1.6c0.5,-1.1 0.4,-2.5 1,-3.6c0.4,-1.1 0.9,-2.3 1.4,-3.4c0.4,-0.8 1.4,-1.1 2.2,-0.7c0.7,0.4 1,1.2 0.8,2c-0.4,1.1 -1,2.2 -1.5,3.3c-0.5,1.1 -1.5,2 -2,3.1c-0.3,0.6 -0.2,1.2 -0.5,1.8c-0.3,0.5 -0.7,1 -1,1.5c-0.4,0.5 -0.8,1 -1.1,1.5c-0.3,0.5 -0.6,1.1 -0.6,1.8c0,0.4 -0.4,0.8 -0.8,0.8c-0.4,0 -0.8,-0.4 -0.8,-0.8c0,-0.2 0.1,-0.4 0.2,-0.5z" class="st2"/>
      </g>
      <g id="svg_97">
       <path id="svg_98" fill="#FFFFFF" d="m249.4,367.05001c0,-0.7 -0.3,-1.2 -0.7,-1.7c-0.3,-0.5 -0.8,-1 -1.2,-1.4c-0.4,-0.5 -0.8,-0.9 -1.1,-1.5c-0.3,-0.5 -0.4,-1.2 -0.7,-1.7c-0.6,-1.1 -1.7,-1.9 -2.2,-3c-0.6,-1 -1.3,-2.1 -1.8,-3.2c-0.4,-0.8 0,-1.8 0.8,-2.1c0.7,-0.3 1.6,-0.1 2,0.6c0.6,1 1.2,2.1 1.7,3.3c0.6,1.1 0.6,2.4 1.2,3.5c0.3,0.5 0.8,0.9 1.1,1.5c0.2,0.6 0.4,1.2 0.6,1.8c0.2,0.6 0.3,1.2 0.5,1.8c0.2,0.6 0.5,1.1 1,1.5c0.4,0.3 0.4,0.8 0.1,1.1s-0.8,0.4 -1.1,0.1c-0.1,-0.2 -0.2,-0.4 -0.2,-0.6z" class="st2"/>
      </g>
      <g id="svg_99">
       <path id="svg_100" fill="#FFFFFF" d="m259.3,354.55001c-0.6,-0.4 -1.2,-0.5 -1.8,-0.5c-0.6,-0.1 -1.2,0 -1.9,0c-0.6,0 -1.2,0.1 -1.9,0c-0.6,0 -1.2,-0.4 -1.8,-0.5c-1.2,-0.2 -2.5,0.2 -3.7,-0.1c-1.2,-0.1 -2.4,-0.3 -3.6,-0.6c-0.9,-0.2 -1.4,-1.1 -1.2,-1.9c0.2,-0.8 0.9,-1.3 1.7,-1.2c1.2,0.1 2.4,0.4 3.6,0.7c1.2,0.2 2.3,1 3.5,1.2c0.6,0.1 1.3,-0.1 1.8,0.1c0.6,0.1 1.2,0.4 1.7,0.6c0.6,0.2 1.1,0.5 1.7,0.7c0.6,0.2 1.2,0.3 1.8,0.1c0.4,-0.1 0.9,0.2 1,0.6c0.1,0.4 -0.2,0.9 -0.6,1c0.1,-0.1 -0.1,-0.1 -0.3,-0.2z" class="st2"/>
      </g>
      <g id="svg_101">
       <path id="svg_102" fill="#FFFFFF" d="m255.5,338.95001c-0.6,0.2 -1,0.6 -1.4,1c-0.4,0.4 -0.7,0.9 -1,1.4c-0.3,0.5 -0.7,1 -1.1,1.4c-0.4,0.4 -1,0.6 -1.4,1c-0.8,0.8 -1.3,2 -2.2,2.7c-0.8,0.8 -1.6,1.6 -2.5,2.3c-0.7,0.5 -1.7,0.4 -2.3,-0.3c-0.5,-0.6 -0.4,-1.5 0.1,-2.1c0.8,-0.8 1.7,-1.6 2.6,-2.3c0.8,-0.8 2.1,-1.1 2.9,-1.9c0.4,-0.4 0.7,-1 1.1,-1.3c0.5,-0.4 1,-0.6 1.5,-0.9c0.5,-0.3 1.1,-0.5 1.5,-0.9c0.5,-0.3 0.9,-0.7 1.1,-1.3c0.2,-0.4 0.7,-0.6 1.1,-0.4c0.4,0.2 0.6,0.7 0.4,1.1c0,0.3 -0.2,0.5 -0.4,0.5z" class="st2"/>
      </g>
     </g>
     <circle id="svg_103" stroke-miterlimit="10" stroke-width="3.2067" stroke="#FFFFFF" fill="none" r="3.60001" cy="349.85001" cx="241.6" class="st10"/>
    </g>
    <g id="svg_104">
     <path id="svg_105" stroke-miterlimit="10" stroke-linejoin="round" stroke-linecap="round" stroke-width="1.7185" stroke="#FFFFFF" fill="none" d="m143.4,173.25001c20.2,-13.3 18.8,-35.8 18.8,-35.8c-7,-0.8 -12.6,-3 -17.2,-6.5c-0.9,-0.7 -2.2,-0.7 -3.2,-0.1c-4.7,3.1 -10.3,5.3 -17.1,6.6c0,0 -1.5,22.5 18.7,35.8z" class="st3"/>
     <path id="svg_106" stroke-miterlimit="10" stroke-linejoin="round" stroke-linecap="round" stroke-width="1.7185" stroke="#FFFFFF" fill="none" d="m143.4,141.65001l2.2,4.5c0.1,0.1 0.2,0.2 0.3,0.2l5,0.7c0.4,0.1 0.5,0.5 0.2,0.8l-3.6,3.5c-0.1,0.1 -0.2,0.2 -0.1,0.4l0.9,5c0.1,0.4 -0.3,0.6 -0.6,0.5l-4.5,-2.4c-0.1,-0.1 -0.3,-0.1 -0.4,0l-4.5,2.4c-0.3,0.2 -0.7,-0.1 -0.6,-0.5l0.9,-5c0,-0.1 0,-0.3 -0.1,-0.4l-3.6,-3.5c-0.3,-0.3 -0.1,-0.7 0.2,-0.8l5,-0.7c0.1,0 0.3,-0.1 0.3,-0.2l2.2,-4.5c0.2,-0.4 0.7,-0.4 0.8,0z" class="st3"/>
    </g>
    <g id="svg_107">
     <ellipse id="svg_108" stroke-miterlimit="10" stroke-linejoin="round" stroke-linecap="round" stroke-width="1.7185" stroke="#FFFFFF" fill="none" ry="7.5" rx="19.2" cy="139.45001" cx="339.8" class="st3"/>
     <path id="svg_109" stroke-miterlimit="10" stroke-linejoin="round" stroke-linecap="round" stroke-width="1.7185" stroke="#FFFFFF" fill="none" d="m330.6,135.95001c2.6,-0.5 5.4,-0.9 9.2,-0.9c1.1,0 2.3,0.1 3.3,0.2" class="st3"/>
     <path id="svg_110" stroke-miterlimit="10" stroke-linejoin="round" stroke-linecap="round" stroke-width="1.7185" stroke="#FFFFFF" fill="none" d="m346.5,135.45001c1.2,0.2 2.9,0.5 3.6,0.7" class="st3"/>
     <path id="svg_111" stroke-miterlimit="10" stroke-linejoin="round" stroke-linecap="round" stroke-width="1.7185" stroke="#FFFFFF" fill="none" d="m359,147.65001c0,4.1 -8.6,7.5 -19.2,7.5s-19.2,-3.4 -19.2,-7.5" class="st3"/>
     <path id="svg_112" stroke-miterlimit="10" stroke-linejoin="round" stroke-linecap="round" stroke-width="1.7185" stroke="#FFFFFF" fill="none" d="m336.7,163.35001c-9.1,-0.6 -16,-3.7 -16,-7.4" class="st3"/>
     <path id="svg_113" stroke-miterlimit="10" stroke-linejoin="round" stroke-linecap="round" stroke-width="1.7185" stroke="#FFFFFF" fill="none" d="m359,155.95001c0,1.7 -1.5,3.3 -4,4.6" class="st3"/>
     <path id="svg_114" stroke-miterlimit="10" stroke-linejoin="round" stroke-linecap="round" stroke-width="1.7185" stroke="#FFFFFF" fill="none" d="m359,164.15001c0,4.1 -8.6,7.5 -19.2,7.5s-19.2,-3.4 -19.2,-7.5" class="st3"/>
     <line id="svg_115" stroke-miterlimit="10" stroke-linejoin="round" stroke-linecap="round" stroke-width="1.7185" stroke="#FFFFFF" fill="none" y2="164.15001" x2="320.7" y1="139.45001" x1="320.7" class="st3"/>
     <line id="svg_116" stroke-miterlimit="10" stroke-linejoin="round" stroke-linecap="round" stroke-width="1.7185" stroke="#FFFFFF" fill="none" y2="164.15001" x2="359" y1="139.45001" x1="359" class="st3"/>
     <line id="svg_117" stroke-miterlimit="10" stroke-linejoin="round" stroke-linecap="round" stroke-width="1.7185" stroke="#FFFFFF" fill="none" y2="164.45001" x2="339.8" y1="161.95001" x1="339.8" class="st3"/>
     <line id="svg_118" stroke-miterlimit="10" stroke-linejoin="round" stroke-linecap="round" stroke-width="1.7185" stroke="#FFFFFF" fill="none" y2="164.25001" x2="343.7" y1="161.85001" x1="343.7" class="st3"/>
     <line id="svg_119" stroke-miterlimit="10" stroke-linejoin="round" stroke-linecap="round" stroke-width="1.7185" stroke="#FFFFFF" fill="none" y2="163.75001" x2="347.5" y1="161.25001" x1="347.5" class="st3"/>
     <line id="svg_120" stroke-miterlimit="10" stroke-linejoin="round" stroke-linecap="round" stroke-width="1.7185" stroke="#FFFFFF" fill="none" y2="162.85001" x2="351.4" y1="160.35001" x1="351.4" class="st3"/>
    </g>
   </g>
  </g>
  <g id="svg_122">
   <path id="svg_123" fill="#7B7C7F" d="m562.28522,173.66252l-62.28522,0l0,-19.79935l146.32761,0l0,19.79935l-62.28522,0l0,172.03434l-21.33055,0l0,-172.03434l-0.42661,0z" class="st1"/>
   <path id="svg_124" fill="#7B7C7F" d="m685.14922,153.42319l134.38249,0l0,19.79935l-113.47855,0l0,65.55784l101.53344,0l0,19.79935l-101.53344,0l0,67.31778l114.75838,0l0,19.79935l-135.66233,0l0,-192.27367z" class="st1"/>
   <path id="svg_125" fill="#7B7C7F" d="m854.94043,250.22l0,-0.43999c0,-54.11822 39.24822,-98.99674 93.85444,-98.99674c33.70228,0 53.753,12.31959 72.52389,30.359l-14.50478,15.83948c-15.78461,-15.39949 -33.27567,-26.39913 -58.44572,-26.39913c-41.38128,0 -72.09727,34.31887 -72.09727,78.75741l0,0.43999c0,44.43854 31.14261,79.19739 72.09727,79.19739c25.59667,0 42.2345,-10.11967 60.15216,-27.71909l13.65156,14.07954c-19.1975,20.23933 -40.52805,33.87888 -74.23033,33.87888c-53.32639,-0.43999 -93.00122,-43.99855 -93.00122,-98.99674z" class="st1"/>
   <path id="svg_126" fill="#7B7C7F" d="m1059.28715,153.42319l20.90394,0l0,85.35719l107.506,0l0,-85.35719l20.90394,0l0,191.83368l-20.90394,0l0,-86.23716l-107.506,0l0,86.23716l-20.90394,0l0,-191.83368z" class="st1"/>
   <path id="svg_127" fill="#7B7C7F" d="m1324.21264,317.53778l24.31683,-29.91901c16.63783,14.07954 34.12889,23.31923 55.45944,23.31923c16.63783,0 26.8765,-7.03977 26.8765,-18.03941l0,-0.43999c0,-10.55965 -6.39917,-16.27946 -37.54178,-24.1992c-37.54178,-9.67968 -61.85861,-20.67932 -61.85861,-58.51807l0,-0.43999c0,-34.75886 27.30311,-57.6381 65.2715,-57.6381c27.30311,0 50.34011,8.79971 69.111,24.1992l-21.33055,31.67896c-16.63783,-11.87961 -32.84905,-18.91938 -48.20705,-18.91938s-23.89022,7.47975 -23.89022,16.71945l0,0.43999c0,12.75958 8.10561,16.71945 40.10144,25.07917c37.54178,10.11967 58.87233,24.1992 58.87233,57.6381l0,0.43999c0,38.27874 -28.15633,59.39804 -68.25778,59.39804c-28.15633,0 -56.31266,-10.55965 -78.92305,-30.79899z" class="st1"/>
   <path id="svg_128" fill="#7B7C7F" d="m1504.24252,262.97958l0,-109.55639l40.95467,0l0,108.67642c0,31.23897 15.358,47.51844 40.10144,47.51844c25.17005,0 40.10144,-15.39949 40.10144,-46.19848l0,-109.99638l40.95467,0l0,108.23644c0,58.07809 -31.56922,86.67715 -81.48272,86.67715s-80.6295,-28.59906 -80.6295,-85.35719z" class="st1"/>
   <path id="svg_129" fill="#7B7C7F" d="m1708.16262,153.42319l72.52389,0c58.44572,0 98.97377,41.35864 98.97377,95.47686l0,0.43999c0,54.11822 -40.52805,95.91684 -98.97377,95.91684l-72.52389,0l0,-191.83368zm40.95467,38.27874l0,115.71619l31.56922,0c33.27567,0 55.88605,-23.31923 55.88605,-57.19812l0,-0.43999c0,-33.87888 -22.61039,-57.6381 -55.88605,-57.6381l-31.56922,0l0,-0.43999z" class="st1"/>
   <path id="svg_130" fill="#7B7C7F" d="m1907.81662,250.22l0,-0.43999c0,-54.5582 41.80789,-98.99674 98.97377,-98.99674s98.54716,43.99855 98.54716,98.55676l0,0.43999c0,54.5582 -41.80789,98.99674 -98.97377,98.99674c-57.5925,0 -98.54716,-44.43854 -98.54716,-98.55676zm154.85983,0l0,-0.43999c0,-32.99891 -23.46361,-60.27802 -56.31266,-60.27802s-55.88605,26.83912 -55.88605,59.83803l0,0.43999c0,32.99891 23.46361,60.27802 56.31266,60.27802s55.88605,-27.2791 55.88605,-59.83803z" class="st1"/>
   <path id="svg_131" fill="#7B7C7F" d="m2141.59949,153.42319l40.95467,0l0,84.03723l75.51016,-84.03723l49.48689,0l-75.93677,81.39732l79.34966,110.43636l-49.06028,0l-57.5925,-81.39732l-21.33055,22.87925l0,58.51807l-40.95467,0l0,-191.83368l-0.42661,0z" class="st1"/>
   <path id="svg_132" fill="#7B7C7F" d="m2328.88177,262.97958l0,-109.55639l40.95467,0l0,108.67642c0,31.23897 15.358,47.51844 40.10144,47.51844c25.17005,0 40.10144,-15.39949 40.10144,-46.19848l0,-109.99638l40.95467,0l0,108.23644c0,58.07809 -31.56922,86.67715 -81.48272,86.67715s-80.6295,-28.59906 -80.6295,-85.35719z" class="st1"/>
  </g>
 </g>
</svg>