<?xml version="1.0" encoding="utf-8"?>
<svg xmlns="http://www.w3.org/2000/svg" xmlns:xlink="http://www.w3.org/1999/xlink" width="592" height="514" viewBox="0 0 592 514"><defs><style>.cls-1{opacity:0.12;fill:url(#Unbenannter_Verlauf_69);}.cls-2{opacity:0.25;fill:url(#Unbenannter_Verlauf_72);}.cls-3,.cls-8{opacity:0.2;}.cls-3{fill:url(#Unbenannter_Verlauf_69-2);}.cls-4{opacity:0.3;}.cls-5{fill:#718095;}.cls-6{opacity:0.9;}.cls-7{fill:url(#Verlauf_Visuals_dark_2);}.cls-9{fill:url(#Neues_Verlaufsfeld_6);}.cls-10{fill:url(#Neues_Verlaufsfeld_15);}.cls-11{fill:url(#Neues_Verlaufsfeld_15-2);}.cls-12{fill:url(#Neues_Verlaufsfeld_6-2);}.cls-13,.cls-14{fill:#f6f7f8;}.cls-14{opacity:0.5;}.cls-15{fill:url(#Neues_Verlaufsfeld_11);}.cls-16{opacity:0.3;}.cls-17,.cls-18,.cls-20,.cls-22{fill:none;stroke-miterlimit:10;stroke-width:2px;}.cls-17{stroke:url(#Unbenannter_Verlauf_36);}.cls-18{stroke:url(#Unbenannter_Verlauf_36-2);}.cls-19{fill:url(#Verlauf-Icon_hell);}.cls-20{stroke:#9fe8f5;}.cls-21{fill:url(#Verlauf-Icon_hell-2);}.cls-22{stroke:url(#Neues_Verlaufsfeld_11-2);}.cls-23{fill:url(#Unbenannter_Verlauf_3);}.cls-24{fill:#2cb0a0;}.cls-25{fill:url(#Unbenannter_Verlauf_4);}.cls-26{fill:#eabd8c;}.cls-27{fill:#e2e2e2;}.cls-28{fill:#001b41;}.cls-29{fill:#263d5d;}.cls-30{fill:url(#Verlauf-Icon_hell-3);}.cls-31{fill:url(#Unbenannter_Verlauf_30);}.cls-32{fill:url(#Unbenannter_Verlauf_33);}.cls-33{fill:#000d1c;}.cls-34{fill:#edb996;}.cls-35{fill:url(#Verlauf_Visuals_dark_2-2);}.cls-36{fill:#332723;}.cls-37{fill:#28cce8;}.cls-38{fill:#f765a6;}.cls-39{fill:#fcd02c;}.cls-40{fill:#3adebe;}.cls-41{opacity:0.45;fill:url(#Unbenannter_Verlauf_12);}</style><linearGradient id="Unbenannter_Verlauf_69" x1="266.758" y1="247.241" x2="450.732" y2="141.024" gradientUnits="userSpaceOnUse"><stop offset="0" stop-color="#9ca6b5"/><stop offset="0.064" stop-color="#99a3b3"/><stop offset="0.266" stop-color="#95a0b0"/><stop offset="0.284" stop-color="#9aa4b4"/><stop offset="0.427" stop-color="#bec5cf"/><stop offset="0.572" stop-color="#dbdee4"/><stop offset="0.716" stop-color="#eff0f3"/><stop offset="0.859" stop-color="#fbfbfc"/><stop offset="1" stop-color="#fff"/></linearGradient><linearGradient id="Unbenannter_Verlauf_72" x1="79.487" y1="141.016" x2="207.919" y2="215.167" gradientUnits="userSpaceOnUse"><stop offset="0.133" stop-color="#fff"/><stop offset="0.765" stop-color="#95a0b0"/><stop offset="0.822" stop-color="#98a3b2"/><stop offset="1" stop-color="#9ca6b5"/></linearGradient><linearGradient id="Unbenannter_Verlauf_69-2" x1="252.027" y1="180.248" x2="252.027" y2="484.75" xlink:href="#Unbenannter_Verlauf_69"/><linearGradient id="Verlauf_Visuals_dark_2" x1="254" y1="220.242" x2="570.33" y2="220.242" gradientUnits="userSpaceOnUse"><stop offset="0" stop-color="#001b41"/><stop offset="1" stop-color="#124aa8"/></linearGradient><linearGradient id="Neues_Verlaufsfeld_6" x1="550.328" y1="287.74" x2="558.833" y2="287.74" gradientUnits="userSpaceOnUse"><stop offset="0" stop-color="#a6a8ab"/><stop offset="0.107" stop-color="#b6b8bb"/><stop offset="0.349" stop-color="#d6d7d8"/><stop offset="0.583" stop-color="#ededee"/><stop offset="0.805" stop-color="#fafafb"/><stop offset="1" stop-color="#fff"/></linearGradient><linearGradient id="Neues_Verlaufsfeld_15" x1="726.412" y1="-18.548" x2="766.967" y2="-41.963" gradientTransform="matrix(0.866, -0.5, 1, 0.577, -416.62, 620.722)" gradientUnits="userSpaceOnUse"><stop offset="0" stop-color="#95a0b0"/><stop offset="1" stop-color="#fff"/></linearGradient><linearGradient id="Neues_Verlaufsfeld_15-2" x1="742.877" y1="-29.757" x2="759.276" y2="-15.555" xlink:href="#Neues_Verlaufsfeld_15"/><linearGradient id="Neues_Verlaufsfeld_6-2" x1="748.24" y1="-34.235" x2="774.614" y2="-49.462" gradientTransform="matrix(0.866, -0.5, 1, 0.577, -416.62, 620.722)" xlink:href="#Neues_Verlaufsfeld_6"/><linearGradient id="Neues_Verlaufsfeld_11" x1="215.359" y1="300.954" x2="384.194" y2="300.954" gradientTransform="matrix(0.866, 0.5, 0, 1.155, 91.988, -358.046)" gradientUnits="userSpaceOnUse"><stop offset="0" stop-color="#e7f9fc"/><stop offset="1" stop-color="#40d2eb"/></linearGradient><linearGradient id="Unbenannter_Verlauf_36" x1="319.642" y1="162.635" x2="331.008" y2="162.635" gradientTransform="translate(124.905 -140.875) rotate(30)" gradientUnits="userSpaceOnUse"><stop offset="0" stop-color="#fa4778"/><stop offset="1" stop-color="#8a118d"/></linearGradient><linearGradient id="Unbenannter_Verlauf_36-2" x1="345.754" y1="206.07" x2="357.244" y2="206.07" gradientTransform="matrix(1, 0, 0, 1, 0, 0)" xlink:href="#Unbenannter_Verlauf_36"/><linearGradient id="Verlauf-Icon_hell" x1="448.305" y1="227.199" x2="512.573" y2="227.199" gradientUnits="userSpaceOnUse"><stop offset="0" stop-color="#11c7e6"/><stop offset="1" stop-color="#3c9ddb"/></linearGradient><linearGradient id="Verlauf-Icon_hell-2" x1="448.305" y1="304.699" x2="512.573" y2="304.699" xlink:href="#Verlauf-Icon_hell"/><linearGradient id="Neues_Verlaufsfeld_11-2" x1="459.51" y1="306.499" x2="500.355" y2="306.499" gradientTransform="matrix(1, 0, 0, 1, 0, 0)" xlink:href="#Neues_Verlaufsfeld_11"/><linearGradient id="Unbenannter_Verlauf_3" x1="2163.918" y1="799.639" x2="2163.918" y2="877.079" gradientTransform="translate(-1100.12 -320.81) scale(0.6)" gradientUnits="userSpaceOnUse"><stop offset="0" stop-color="#1d9f90"/><stop offset="1" stop-color="#008272"/></linearGradient><linearGradient id="Unbenannter_Verlauf_4" x1="2108.656" y1="779.439" x2="2151.164" y2="863.979" gradientTransform="translate(-1100.12 -320.81) scale(0.6)" gradientUnits="userSpaceOnUse"><stop offset="0" stop-color="#90fcec"/><stop offset="1" stop-color="#33baaa"/></linearGradient><linearGradient id="Verlauf-Icon_hell-3" x1="67.453" y1="366.323" x2="198.729" y2="366.323" xlink:href="#Verlauf-Icon_hell"/><linearGradient id="Unbenannter_Verlauf_30" x1="109.092" y1="289.642" x2="133.703" y2="289.642" gradientUnits="userSpaceOnUse"><stop offset="0" stop-color="#972e16"/><stop offset="1" stop-color="#ac5f22"/></linearGradient><linearGradient id="Unbenannter_Verlauf_33" x1="101.604" y1="281.99" x2="116.741" y2="281.99" gradientUnits="userSpaceOnUse"><stop offset="0" stop-color="#c56a22"/><stop offset="1" stop-color="#ac5f22"/></linearGradient><linearGradient id="Verlauf_Visuals_dark_2-2" x1="296.391" y1="384.989" x2="296.391" y2="478.49" xlink:href="#Verlauf_Visuals_dark_2"/><linearGradient id="Unbenannter_Verlauf_12" x1="277.8" y1="390.391" x2="309.179" y2="359.012" gradientUnits="userSpaceOnUse"><stop offset="0" stop-color="#e7f9fc"/><stop offset="0.562" stop-color="#2ecde9"/><stop offset="1" stop-color="#28cce8"/></linearGradient></defs><title>collaborate-office-365</title><g id="Collaboration_2" data-name="Collaboration 2"><g id="Calendar_Sync" data-name="Calendar Sync"><path class="cls-1" d="M228.08,42.658v137.59L498.752,340.213S518.4,166.982,420.41,136.779s-84.762-64.365-91.374-80.9S274.8,27.229,228.08,42.658Z"/><path class="cls-2" d="M21.563,291.722,228.08,180.248V42.658s-112.843,3.306-119.455,52.9c0,0,7.714,59.511-17.633,76.041,0,0-37.47,57.307-41.878,73.838C49.114,245.436,49.114,276.294,21.563,291.722Z"/><path class="cls-3" d="M6.873,300.41,228.08,180.248l270.672,160.24s-24.887,144.26-57.659,144.26c0,0-151.567,1.366-159.76-69.639s-91.487-53.253-111.969-35.5S-12.243,315.43,6.873,300.41Z"/><g class="cls-4"><path class="cls-5" d="M266.6,18.2c0-2.364,1.671-3.325,3.714-2.134l308.9,179.966a8.3,8.3,0,0,1,3.715,6.463V405.447c0,2.365-1.671,3.325-3.714,2.135l-308.9-179.965a8.3,8.3,0,0,1-3.714-6.463Z"/></g><g class="cls-6"><path class="cls-7" d="M254,26.969c0-2.364,1.671-3.325,3.714-2.135L566.614,204.8a8.3,8.3,0,0,1,3.715,6.463V413.515c0,2.364-1.671,3.325-3.714,2.135l-308.9-179.966A8.3,8.3,0,0,1,254,229.222Z"/></g><g class="cls-8"><path class="cls-9" d="M558.833,345.168c0,2.68-1.9,3.776-4.219,2.436l-.066-.038a9.362,9.362,0,0,1-4.22-7.308V230.313c0-2.68,1.9-3.776,4.22-2.436l.066.038a9.359,9.359,0,0,1,4.219,7.308Z"/></g><polygon class="cls-10" points="221.249 236.437 200.947 248.159 180.644 236.437 180.844 216.047 200.732 227.169 221.405 216.047 221.249 236.437"/><polyline class="cls-11" points="200.732 227.169 221.405 216.047 221.249 236.437 200.947 248.159"/><polygon class="cls-12" points="221.249 215.847 200.947 227.568 180.644 215.847 200.947 204.125 221.249 215.847"/><polygon class="cls-5" points="212.972 215.569 200.84 222.573 188.708 215.569 200.84 208.564 212.972 215.569"/><path class="cls-13" d="M418.6,297,284.876,219.794c-3.434-1.983-6.244-7.352-6.244-11.931V89.928c0-4.579,2.81-6.7,6.244-4.721L418.6,162.415c3.434,1.983,6.244,7.351,6.244,11.93V292.281C424.848,296.86,422.038,298.984,418.6,297Z"/><path class="cls-14" d="M422.8,294.487,289.067,217.279c-3.434-1.983-6.244-7.351-6.244-11.93V87.413c0-4.579,2.81-6.7,6.244-4.72L422.8,159.9c3.434,1.983,6.244,7.352,6.244,11.931V289.766C429.039,294.345,426.229,296.47,422.8,294.487Z"/><path class="cls-15" d="M278.494,112.766V88.733c0-3.966,2.81-5.588,6.244-3.605l133.728,77.207a13.854,13.854,0,0,1,6.244,10.815v24.034C424.71,196.583,278.494,112.766,278.494,112.766Z"/><g class="cls-16"><path class="cls-5" d="M307.73,161.988l-14.8-8.547a4.983,4.983,0,0,1-2.081-3.977V134.087c0-1.532.931-2.237,2.081-1.573l14.8,8.547a4.985,4.985,0,0,1,2.081,3.977v15.376C309.811,161.947,308.879,162.651,307.73,161.988Z"/><path class="cls-5" d="M333.018,176.588l-14.8-8.547a4.985,4.985,0,0,1-2.081-3.977V148.688c0-1.533.932-2.237,2.081-1.574l14.8,8.547a4.984,4.984,0,0,1,2.082,3.977v15.377C335.1,176.547,334.168,177.252,333.018,176.588Z"/><path class="cls-5" d="M358.728,191.432l-14.8-8.547a4.986,4.986,0,0,1-2.081-3.977V163.531c0-1.532.932-2.237,2.081-1.573l14.8,8.547a4.983,4.983,0,0,1,2.082,3.977v15.376C360.81,191.391,359.878,192.1,358.728,191.432Z"/><path class="cls-5" d="M384.017,206.032l-14.8-8.547a4.985,4.985,0,0,1-2.081-3.977V178.132c0-1.533.932-2.237,2.081-1.574l14.8,8.547a4.986,4.986,0,0,1,2.081,3.977v15.377C386.1,205.991,385.166,206.7,384.017,206.032Z"/><path class="cls-5" d="M307.73,189.728l-14.8-8.547a4.981,4.981,0,0,1-2.081-3.976V161.828c0-1.533.931-2.237,2.081-1.574l14.8,8.547a4.986,4.986,0,0,1,2.081,3.977v15.377C309.811,189.687,308.879,190.392,307.73,189.728Z"/><path class="cls-5" d="M333.018,204.329l-14.8-8.547a4.986,4.986,0,0,1-2.081-3.977V176.428c0-1.533.932-2.237,2.081-1.573l14.8,8.547a4.982,4.982,0,0,1,2.082,3.976v15.377C335.1,204.288,334.168,204.992,333.018,204.329Z"/><path class="cls-5" d="M358.728,219.172l-14.8-8.547a4.984,4.984,0,0,1-2.081-3.976V191.272c0-1.533.932-2.237,2.081-1.574l14.8,8.547a4.984,4.984,0,0,1,2.082,3.977V217.6C360.81,219.131,359.878,219.836,358.728,219.172Z"/><path class="cls-5" d="M384.017,233.773l-14.8-8.547a4.986,4.986,0,0,1-2.081-3.977V205.872c0-1.532.932-2.237,2.081-1.573l14.8,8.547a4.984,4.984,0,0,1,2.081,3.976V232.2C386.1,233.732,385.166,234.436,384.017,233.773Z"/><path class="cls-5" d="M410.554,221.354l-14.8-8.547a4.988,4.988,0,0,1-2.081-3.977V193.453c0-1.533.932-2.237,2.081-1.573l14.8,8.546a4.985,4.985,0,0,1,2.081,3.977V219.78C412.635,221.313,411.7,222.017,410.554,221.354Z"/><path class="cls-5" d="M410.554,249.094l-14.8-8.547a4.986,4.986,0,0,1-2.081-3.977V221.194c0-1.533.932-2.238,2.081-1.574l14.8,8.547a4.983,4.983,0,0,1,2.081,3.977v15.377C412.635,249.053,411.7,249.758,410.554,249.094Z"/><path class="cls-5" d="M307.73,219.067l-14.8-8.547a4.983,4.983,0,0,1-2.081-3.977V191.167c0-1.533.931-2.238,2.081-1.574l14.8,8.547a4.986,4.986,0,0,1,2.081,3.977v15.376C309.811,219.026,308.879,219.731,307.73,219.067Z"/><path class="cls-5" d="M333.018,233.667l-14.8-8.547a4.984,4.984,0,0,1-2.081-3.976V205.767c0-1.533.932-2.237,2.081-1.574l14.8,8.547a4.984,4.984,0,0,1,2.082,3.977v15.377C335.1,233.626,334.168,234.331,333.018,233.667Z"/><path class="cls-5" d="M358.728,248.511l-14.8-8.547a4.986,4.986,0,0,1-2.081-3.977V220.611c0-1.533.932-2.238,2.081-1.574l14.8,8.547a4.984,4.984,0,0,1,2.082,3.977v15.377C360.81,248.47,359.878,249.175,358.728,248.511Z"/><path class="cls-5" d="M384.017,263.111l-14.8-8.547a4.984,4.984,0,0,1-2.081-3.976V235.211c0-1.533.932-2.237,2.081-1.574l14.8,8.547a4.986,4.986,0,0,1,2.081,3.977v15.377C386.1,263.071,385.166,263.775,384.017,263.111Z"/><path class="cls-5" d="M410.554,278.433l-14.8-8.547a4.986,4.986,0,0,1-2.081-3.977V250.532c0-1.532.932-2.237,2.081-1.573l14.8,8.547a4.981,4.981,0,0,1,2.081,3.976v15.377C412.635,278.392,411.7,279.1,410.554,278.433Z"/></g><ellipse class="cls-17" cx="325.325" cy="162.635" rx="3.824" ry="6.623" transform="translate(-37.732 184.453) rotate(-30)"/><polyline class="cls-18" points="346.659 203.007 349.484 209.028 356.545 202.129"/><g class="cls-16"><path class="cls-14" d="M510.684,269.264l-53.775-31.047c-2.885-1.666-5.246-6.177-5.246-10.024V183.876c0-3.847,2.361-5.632,5.246-3.966l53.775,31.046c2.886,1.667,5.247,6.178,5.247,10.025V265.3C515.931,269.145,513.57,270.93,510.684,269.264Z"/><path class="cls-19" d="M507.326,271.876l-53.774-31.047c-2.886-1.666-5.247-6.177-5.247-10.025V186.488c0-3.848,2.361-5.632,5.247-3.966l53.774,31.046c2.886,1.666,5.247,6.177,5.247,10.025v44.316C512.573,271.757,510.212,273.542,507.326,271.876Z"/></g><polygon class="cls-20" points="471.295 208.749 471.295 218.997 462.171 206.734 462.171 218.826 462.171 230.918 471.295 229.19 471.295 238.095 496.709 252.768 496.709 223.422 471.295 208.749"/><g class="cls-16"><path class="cls-14" d="M510.684,346.764l-53.775-31.047c-2.885-1.666-5.246-6.177-5.246-10.024V261.376c0-3.847,2.361-5.632,5.246-3.966l53.775,31.046c2.886,1.667,5.247,6.178,5.247,10.025V342.8C515.931,346.645,513.57,348.43,510.684,346.764Z"/><path class="cls-21" d="M507.326,349.376l-53.774-31.047c-2.886-1.666-5.247-6.177-5.247-10.025V263.988c0-3.848,2.361-5.632,5.247-3.966l53.774,31.046c2.886,1.666,5.247,6.177,5.247,10.025v44.316C512.573,349.257,510.212,351.042,507.326,349.376Z"/></g><path class="cls-22" d="M499.271,330.816l.082-27.65L460.51,280.7v27.733l24.536,14.09a11.793,11.793,0,0,0,4.6,8.541s-1.463-3.663.305-5.727Z"/><path class="cls-23" d="M203.5,203.493q.718-32.076-7.3-44.52c-2.625,1.6-4.988,18.241-1.654,22.254q3.335,4.024,3.684,24.211Z"/><path class="cls-24" d="M198.86,197.289q7.8-29.873,22.078-30.143c.49,13.847-1.847,18.217-9.232,20.924s3.264,6.155,0,11.607c.962,3.213-3.614,13.786-9.7,18.463l-4.507-12.6Z"/><path class="cls-25" d="M196.129,211.629c0-3.213-18.893-12.764-17.449-22.3s.954-20.248-10.317-13.219.875-23.756-3.868-30.107c14.877.985,39.711,27.657,36.815,67.229C198.413,215.383,196.129,214.841,196.129,211.629Z"/></g></g><g id="Layer_9" data-name="Layer 9"><ellipse class="cls-13" cx="302.58" cy="477.395" rx="28.718" ry="16.581"/><path class="cls-26" d="M165.27,326.777l2.2-1.562,1.193-3.03s9.184-.368,4.5,4.684l-2.663,2.663-1.561-.184-2.021,1.01Z"/><path class="cls-5" d="M206.592,397.025l5.665,6.832a4.923,4.923,0,0,0,4.832-4.166c1-4.332,3.166-14.163,3.166-14.163l1.5-9.164s-1.167-2-4-.333L212.424,387.2s1.166,5-1.833,8.5Z"/><polygon class="cls-27" points="168.217 339.122 144.723 352.785 174.049 372.114 197.043 356.784 197.543 327.292 168.217 310.13 168.217 339.122"/><polygon class="cls-28" points="169.716 313.129 169.716 337.456 195.543 352.619 195.543 327.792 169.716 313.129"/><polygon class="cls-13" points="168.102 342.346 155.065 350.716 178.082 365.846 191.119 357.154 168.102 342.346"/><path class="cls-26" d="M166.436,346.372l3-1.5,3.5-4.832,1.166.167-.916,2.5,6.582-2.833,1.832.167a26.154,26.154,0,0,1-2.666,1.666,27.591,27.591,0,0,1,2.583-1.5l.917,2.166s3.665,6.165-3.666,6.831l-6.5.334-5.165.5Z"/><path class="cls-26" d="M114.949,299.717l.833,10.5,5.665,5.166,9,2,2.666-3.5-4.166-3.5-.833-2.166V303.05l2.833-.667a51.143,51.143,0,0,0,.666-5.165c0-1.333.667-1,1.167-1s-.667-2.833-.667-3.666.833-3.832.667-5.165-7.332,1-7.332,1l-9.331,8.664Z"/><path class="cls-29" d="M115.449,313.38s10,3.666,14.5,2.166c0,0,3.832-2.5-1-5.165,0,0,6.832,1.666,10.331,4.666,0,0,3.5,3.165,4.166,7.331l2.332,7.831.334,3.833a10.6,10.6,0,0,0,5.5-1.5l13.663-6.665s3.666,2.5,3.166,4.832c0,0-16.829,11.83-19,12.664a51.561,51.561,0,0,1-5.165,1.5c-.667,0,1.5,2,1.5,2l21.5-1.667s3.166,5.166.833,6.832c0,0-14.83,2.833-17.662,3.333l6.165,5,11,7.332-8.331,4.5-39.657-28.327Z"/><path class="cls-30" d="M73.459,327.377S54.144,370.836,84.79,415.854c0,0,17.662,18,63.65,14l19.662-3.665s25.327-8,29.326-23.994c0,0,3.332-13.663-.667-19.329,0,0-5-14.662-18-14.662l-15-.334s-16.663-4-29.659-25.327l-10-21.661s-5.665-17.329-20-18.662C104.118,302.216,84.79,304.383,73.459,327.377Z"/><path class="cls-31" d="M109.45,293.885s6.5,10,10.831,10.164c0,0,4.665.667,4-5.5s.166-4.666.166-4.666,10.331-3.832,9.165-11.164c0,0-.667-7.831-12.664-7.5,0,0-6.165.167-6.831.667s-5.166,4.165-5,9.831S108.784,291.719,109.45,293.885Z"/><path class="cls-32" d="M115.449,275.557s-6.5-5.166-11.5,1c0,0-5.5,8.332.333,12.83,0,0,6.332,4.166,10.331-4C114.616,285.387,118.781,278.889,115.449,275.557Z"/><path class="cls-28" d="M179.618,368.448l4.27.61,7.624,5.184,5.49,4.575,34.156,15.553s4.575-1.22,3.66-6.709l-40.256-27.447h-2.44Z"/><path class="cls-28" d="M198.527,387.661l9.731,9.364s7-2.5,4-9l-20.328-15.163Z"/><path class="cls-5" d="M226.92,392.894l.256,6.279s1.538,2.051,2.82,1.794c0,0,15.633-8.585,16.53-9.482,0,0,4.357-4.229.384-7.432,0,0-4.613,1.153-5.254,2.05l-2.306,1.538-3.844-.513s-1.026,6.407-3.717,6.92C231.789,394.048,227.305,393.791,226.92,392.894Z"/><path class="cls-33" d="M297.79,475.307v9.607a4.318,4.318,0,0,0,4.173,2.911s3.784-.388,4.852-1.358V484.72h7.472s6.986-1.844,7.86-3.979a2.649,2.649,0,0,0-1.844-3.687l-7.181-.388s-4.075-.194-4.464-1.068Z"/><path class="cls-33" d="M280.987,465.487v8.059a3.624,3.624,0,0,0,3.5,2.443s3.175-.326,4.07-1.14v-1.465h6.268s5.862-1.547,6.594-3.338a2.223,2.223,0,0,0-1.546-3.094l-6.024-.325s-3.42-.163-3.745-.9Z"/><path class="cls-28" d="M330.384,325.157l-8.5,19.634s-.747,1.056.166,1.494l12.012,7.949s.735.782,1.351-.475l1.03-3.355,7.846-16.806s.531-.815-.623-1.713l-10.9-7.641S331.462,323.2,330.384,325.157Z"/><path class="cls-5" d="M330.5,326.8,322.6,345.038s.567.389.555.39l10.589,7.008s.648.689,1.191-.419l.908-2.957,6.917-14.816s.358-.85.379-.876l-12-8.159S330.5,326.826,330.5,326.8Z"/><path class="cls-34" d="M330.174,353.13s1.075-3.754,2.128-4.843c0,0,1.741-2.908,1.83-3.2,0,0,.8-1.912,1.667-1.037,0,0,.942.827-.479,3.334,0,0-.617,2.823.183,3.1,0,0,.961.257,1.738-1.855l2.411-5.251s1.384,2.236-.6,6.629c0,0-3.053,4.944-3.876,5.562Z"/><path class="cls-34" d="M289.786,315.506l6.441,5.8,6.011.644-.215-3.22a36.868,36.868,0,0,0,3.864.859h-.644s1.5.644,3.435-3.864l1.5-3.865s1.5-1.5,1.074-4.723l1.932-3.22s1.5-4.079,1.5-5.8c0,0-2.791-3.864-4.509-3.649s-13.31,1.932-13.31,1.932L291.5,308.636Z"/><path class="cls-35" d="M281.38,384.989l.2,40.523s-.313,30.465-.824,40.767c0,0,2.981,4.638,9.661-.471,0,0,1.545-19.475,2.357-25.1l1.414-8.837,2.356-12.961s-1.8,48.989,1.737,58.027c0,0,3.665,3.808,9.953-.515l1.443-29.349,1.964-17.291.393-34.58Z"/><path class="cls-13" d="M329.02,353.854l.644-1.046,3.7.107a10.723,10.723,0,0,1,2.63,2.362s.188,1.073-.241,1.449c0,0-1.5-2.5-2.416-2.55Z"/><path class="cls-36" d="M290.754,311.427s2.9,2.361,4.457,2.576c0,0,3.989,1.181,4.88-1.61l2.919-5.045,1.783-1.288,2.451.429.223,1.5s1.56.859,2-4.294l1.114-3.864s0-1.718,2.9-1.718l1.783.215s4.011-3.65.223-5.582l-7.131-3.864s-8.913-1.932-12.924-.644a10.443,10.443,0,0,0-5.794,7.084s-2.228,5.153.223,8.8C289.863,304.128,291.423,310.139,290.754,311.427Z"/><path class="cls-37" d="M328.913,353.827l-2.738,4.831-3.542,2.9-1.288-2.093-1.932-11.11-.322-7.568s0-5.152-7.729-11.432l-7.407-4.991s-12.237-.644-15.779-7.246c0,0-5.153-.805-7.89.966,0,0-3.22.483-4.991,5.636,0,0-6.119,18.838-6.6,22.381l-1.771,10.949a10.168,10.168,0,0,0,1.127,8.211l7.085,13.687,5.152,8.533L279.573,392l9.038,6.681,2.358-5.895-.378,6.129s10.788,4.025,14.491,3.7,10.305-3.864,10.305-3.864l-1.61-27.695s2.254,3.542,6.28,2.737a19.418,19.418,0,0,0,6.923-4.186l8.856-10.144S337.285,352.378,328.913,353.827Zm-47.929,12.56-3.865-9.017,2.147-8.588,1.718,8.588Z"/><path class="cls-28" d="M290.135,313.064l-.725.483-1.449,4.025a11.962,11.962,0,0,0,5.475,4.589s6.118,2.657,10.627,2.657c0,0-.886-3.14-2.255-3.623,0,0-5.474-1.691-6.682-2.174C295.126,319.021,290.215,317.17,290.135,313.064Z"/><path class="cls-36" d="M307.467,307.992l-1.713,6.177.133,5.416s.948,1.075,1.76.264,1.031-4.128,1.031-4.128A13.321,13.321,0,0,1,307.467,307.992Z"/><ellipse id="Oval" class="cls-38" cx="264.948" cy="45.879" rx="2.606" ry="4.411" transform="translate(12.033 137.183) rotate(-29.674)"/><ellipse id="Oval-2" data-name="Oval" class="cls-39" cx="275.322" cy="51.937" rx="2.606" ry="4.411" transform="translate(10.394 143.113) rotate(-29.674)"/><ellipse id="Oval-3" data-name="Oval" class="cls-40" cx="285.969" cy="58.067" rx="2.606" ry="4.411" transform="translate(8.756 149.188) rotate(-29.674)"/><polygon class="cls-41" points="279.266 348.949 286 349.167 294 350 301.5 351.333 310.833 365.333 305.333 402.833 298.667 401.833 290.591 399.078 290.969 392.95 288.611 398.844 279.573 392.164 280.286 387.646 280.984 357.536 280.167 353.667 279.266 348.949"/></g></svg>