<svg xmlns="http://www.w3.org/2000/svg" xmlns:xlink="http://www.w3.org/1999/xlink" width="445" height="445" xmlns:v="https://vecta.io/nano"><style><![CDATA[.AB{enable-background:new}.AC{fill:#fff}.AD{fill:#ab324f}.AE{fill:#2c285b}.AF{fill:#f26d7f}.AG{fill:#ed8671}.AH{fill:#efaa87}.AI{fill:#fbbfa1}.AJ{fill:#78b1ba}]]></style><circle cx="359" cy="174.4" r="72.4" fill="#d8e377"/><path d="M399.1 222.4c-4.1 7.2-15.7 4.4-15.7 4.4l-.5 5.8-.9 10.5c-7.2 2.4-15 3.8-23.1 3.8-10.9 0-21.3-2.4-30.5-6.7v-54.7c.2-6.4 5.6-9.8 9.5-11 3.7-1.2 7.8-3 8.1-3.1 0 .1-.1.2-.3.4-1.7 2.7-10.1 16.6-3 23.3 7.9 7.5 14.7-3.9 17.2-7 2.5-3 8.5-16.3 8.7-16.8h0s4.6.2 9.1-1.4c4.5-1.5 19.9-.6 22.3 11 2.4 11.7 3.2 34.3-.9 41.5z" fill="#3599aa"/><g fill="#2d7288"><path d="M387 188.9s8.6 10.9 10.3 16.6.9 9.7.7 7.5c-.1-2.2.8-5.7-5.3-9.9-6.1-4.1-5.7-14.2-5.7-14.2z"/><path d="M383 232.6l-.9 10.5c-5.5 1.8-11.2 3-17.2 3.5 2.1-.9 3.9-2 4.8-3.3 4-5.6-.7-16.5-9-14.2s-17.5 3.8-20.9 1.4c-3.4-2.3-1.3-1.7 11.5-3.9 12.8-2.1 22.9-17.9 22.9-16.6 0 0 .3-1.3 1.8-4.5 1.3-2.9 1.4-14.7 1.4-17.6v20.5s-4 7.5.8 17.8c1.1 2.6 2.8 4.6 4.8 6.4z" opacity=".52" class="AB"/></g><path d="M368.4 171.2c.2.1.4.1.4.1h0c-.2.5-6.2 13.8-8.7 16.8-2.5 3.1-9.3 14.5-17.2 7-7.1-6.8 1.2-20.6 3-23.3 1.8-.9 3-.7 3-.7v-3.3s-3.1.9-6.6 0h0c-2.6-.7-5.3-2.2-7.3-5.8-4.1-7.5-.2-23.6.7-27.3.1-.5.2-.8.2-.8s2.5-6 6-9.9 10.5-8.5 22.3 2.5c7.6 7.1 6 19.9 3.8 29.2-1.2 5.2-2.6 9.3-2.7 10.7-.2 2.9 1.9 4.2 2.9 4.6 0 .1.1.1.2.2z" fill="#fdcea2"/><path d="M368.4 172.6h0l-19.6-3.2v-1.6s4.4-.7 10.2-4.5 8.9-7.6 8.9-7.6c-1.2 5.2-2.6 9.3-2.7 10.7-.2 2.9 1.9 4.2 2.9 4.6.1 0 .2.1.2.1l.1 1.5z" class="AG"/><path d="M384.2 155.6c-.5 7.1-9.2 12.9-16.1 15.5-4.5 1.7-8.2 2.1-8.3.6-.2-3.7 5.6-19.1 3.8-24.8s-7.4-4-11.3-11-5.6-11.2-5.6-11.2-1.9 4.3-5 7.4-6.1 2.7-6.1 2.7c-1 3.7-4.8 19.8-.7 27.3 1.4 2.5 3.1 4 5 5 .8.4 1.6.7 2.3.9-.3.2-4 2.7-6.4 1.5-2.5-1.2-12.6-19.4-7.3-32.3 5.2-13 13.9-24.2 21.1-24.8s10.3 3.1 10.3 3.1 8.9-2.3 14.9 4.4c5.9 6.5 10.2 23.9 9.4 35.7z" fill="#fcb355"/><path d="M348.8 121.9s2.6 11.3 11.9 17.1 6.2 17.8 6.2 17.8 9-.1 9.4-10.2c.4-10.2-1.4-17.3-6.6-22.9s-7.7-7.5-10.7-5.8-4.8 0-3.4 3.9c1.5 3.9 3.3 3.5 5.1 8.3l1.8 4.8s-5.6-5.8-7.7-9.9-2.4-4.6-3.4-4.6-2.6 1.5-2.6 1.5z" opacity=".54" fill="#ffca57" class="AB"/><path d="M383.5 226.8l-1.4 16.3c-.2.1-.4.1-.6.2-.8-3-2.9-9.3-6.9-15.5-5.3-8.3 3-19.6 3.4-20.3-.3.5-4.9 8.4-2.7 12.2 2.4 3.8 8.2 7.1 8.2 7.1zm-51.1-2.7c.4 6.3 1.5 13.3 2.5 18.6-1.8-.6-3.6-1.4-5.4-2.1.4-1.8.7-4 .8-6.8.4-18 0-15.7 1.4-21.3 1.3-5.4 3.8-6.8 4-7-.3.4-4.1 6.9-3.3 18.6z" fill="#2d7288"/><path d="M372.5 158c.2.3.4.5.6.7l-2 2.8c-.8 1.1-2.4 1.3-3.4.5l-6.2-5.2c-.9-.8-1.1-2.2-.4-3.2l2.4-3.2c1.1-.1 2.9-.2 3.6.4 1.3 1 4.2 5.5 5.4 7.2zm9.8-12.5l-.8 1.1c-1.9-2.9-7.5-7.5-9.5-7.6l.1-.1.6-.7c.8-.9 2.2-1.1 3.2-.4l5.9 4.4c1 .8 1.2 2.2.5 3.3z" fill="#1e2433"/><path d="M392.9 216.8c-4 5.3-11.9 2.4-13.1.4s-2.6-13.1-2.9-26c-.2-10.5-.5-22.7-1-27.6h0c-.1-1.1-.2-1.8-.3-2.1h0c-.5-1.1-1.5-1.5-2.6-2.6-.2-.2-.4-.5-.6-.7-1.3-1.7-4.2-6.2-5.3-7.2-.8-.6-2.5-.5-3.6-.4l-1.1.2s-.9-2.5 1.1-3.8c2-1.2 2.7-1.2 2.7-1.2s-.4-2.1.8-3 1.9-.7 1.9-.7.6-3 3-2.9c2.1.1 7.7 4.7 9.5 7.6.4.6.6 1.1.6 1.5.2 2.5 1.1 11.9 1.5 15.2s7.1 25.7 9.3 35.4c.8 3.6 1.6 6.4 2 8.6.9 3.5.6 5.9-1.9 9.3z" fill="#fdcea2"/><path d="M392.9 216.8c-4 5.3-11.9 2.4-13.1.4s-2.6-13.1-2.9-26c-.2-10.5-.5-22.7-1-27.6.5 3.8 1.6 11.8 2.1 19.2.8 10.2 4 27.2 10.1 29.6 4.3 1.7 6.1-2.5 6.8-5.1.8 3.7.5 6.1-2 9.5z" opacity=".36" class="AB AG"/><path d="M378.8 162.6s2.5 27.9 6.9 37.9c4.4 10.1 5.4 2.7 4.6-6.4s-11.5-31.5-11.5-31.5zm-31.3 12.9s7 1.7 6 3.9-7.9 7.4-9.1 2.1c-1.2-5.2 3.1-6 3.1-6z" opacity=".25" class="AC AB"/><path d="M339.8 167c-.3.1-4.7 1.7-8.6-11.2-4.1-13.3 4.4-21 4.4-21-1 3.7-4.8 19.8-.7 27.3 1.3 2.4 3.1 3.9 4.9 4.9z" fill="#f68e59"/><path d="M337.2 196.4s-3.9 22.8 10.6 20.7 30.9-27.5 24.2-26.8-15.3 14.7-24.2 13.4c-8.9-1.2-10.6-7.3-10.6-7.3zm55.5-20.1s-.7 4.6 1.6 16c2.3 11.3 7.4 10.9 6 0-1.5-10.9-7.6-16-7.6-16z" opacity=".14" class="AC AB"/><circle cx="196.8" cy="121.7" r="72.4" fill="#9ad8e1"/><defs><circle id="A" cx="196.8" cy="121.7" r="72.4"/><path id="B" d="M296.5 330.5a.65.65 0 0 1-.6-.6v-34.1a.65.65 0 0 1 .6-.6.65.65 0 0 1 .6.6v34.1a.65.65 0 0 1-.6.6z"/><path id="C" d="M300.6 330.5a.65.65 0 0 1-.6-.6v-34.1a.65.65 0 0 1 .6-.6.65.65 0 0 1 .6.6v34.1c-.1.3-.3.6-.6.6z"/><path id="D" d="M304.6 330.5a.65.65 0 0 1-.6-.6v-34.1a.65.65 0 0 1 .6-.6.65.65 0 0 1 .6.6v34.1c0 .3-.2.6-.6.6z"/></defs><clipPath id="E"><use xlink:href="#A"/></clipPath><g clip-path="url(#E)"><path d="M207.4 102L189 84.7l10.5-9.3L216 93.6z" fill="#524e58"/><path d="M206.9 100.2L191 85.3l9-8.1 14.3 15.7z" fill="#3e3c43"/><g class="AH"><path d="M217.8 102.3s-2.8-.7-1.9-4c.8-3.3-.5-4.1-.5-4.1l-9.6 9.3s4.7 4.5 6.1 4.7c1.4.3 7.3-4.1 5.9-5.9z"/><path d="M205.7 103.6l-6.4-4.3-4.2-4.5c-1.1-1.5 3.2-1.1 4.4.4s2.4 2 3.2 2.3c.9.3 6.1.6 7.1 2.2 1.1 1.5-4.1 3.9-4.1 3.9zm7.9-11.3s-.7.9-1.3-.1c-.6-1.1-.5-3.5.9-2.9 1.4.5.4 3 .4 3zm-1.8-3.3s-.2 1.8-1.1 1-1.8-3.8-.2-3.8c1.4.1 1.3 2.8 1.3 2.8zm-2.6-2.6s0 2.2-1 1.6c-.8-.5-1.9-4.4-.3-4.3 1.5 0 1.3 2.7 1.3 2.7zm-82.3 126.9s-3.4 2.4-5.5 2-4.9-.1-5.8.1c-1.2.2-5.3-.4-4.9 1 .5 1.5 6.8 1.4 8.1 1.6 1.4.2-2.8 3.8-3 5.1-.1 1.3 7.6 8.2 10.1 5.3 2.5-2.8 3-7.6 3.6-8s1.9-2 1.9-2l-4.5-5.1z"/><path d="M116.3 222.2s-7.1 9.2-6.9 10.2c.1 1 .7 1.4 1.4.6s7.1-8.6 7.1-8.6-6.2 12.4-6.3 13.2c-.1.5 1.1 1.3 1.5.9s7.4-12.3 7.4-12.3-5.8 11.6-5.6 12.3c.1.7 1.4 1.2 1.8.4.5-.8 6.6-11.2 6.6-11.2s-3.6 8.7-3.1 9.4c.3.4 1.3 1.1 2.1-1.2.9-2.3 3.5-7.4 3.5-7.4l-9.5-6.3z"/></g><path d="M121.8 214.4s7.1 5.6 9.9 4.9c2.3-.6 18.7-22.7 25.4-33.5 1.4-2.2 2.3-4 2.7-5 1.9-5.6 3.9-22.2 3.9-22.2s6 16.7 6.8 24.7c.4 3.6 1.2 8.5 2 12.8 7.8 3.6 16.4 5.6 25.5 5.6 8.9 0 17.4-1.9 25-5.4-.9-7.2-2.3-18.9-1.1-25.6 1.4-8 .2-21.7.2-21.7l22.4 6.7c2.3.7 8.4-3 10-6.7s-36.4-48.7-36.4-48.7l-8.8 7.5 10.8 18.5c-1.2-.8-25.2-9.5-25.2-9.5l-18.3-.1c-1.3.2-18.1 8.4-20.5 10.5-2.2 1.8-7.8 36.2-9.9 45.2-.2 1-.4 1.7-.6 2-1.4 2.7-23.8 40-23.8 40z" fill="#5d64a2"/><path d="M176.5 116.6c.5 2.1 16.2 14.1 16.2 14.1s3.6-13.4 2.1-14c-.6-.2-.9-1.3-1-2.5-.2-1.1-.2-2.4-.2-3.2v-.8s-2.1-1.9-4.8-4.1c-4.7-3.9-11-8.9-10.9-6.8 0 .1 0 .3.1.4 1.5 4.8-1.5 16.9-1.5 16.9z" class="AH"/><g fill="#474c7b"><path d="M194.4 116.2l4.5 2-2 18-4.2-5.5z"/><path d="M176.8 115.6l15.9 15.1-2.1 6.1-19.1-18.2zm23.8 45.8c-.6 7-.4 11.4 1.3 19.3 1.1 5.1 1.2 13.5 1.3 16.7 0 1.6.1 3 .1 4.2.6 0 1.1-.1 1.7-.2 0-1.1-.1-2.4-.1-3.9-.1-3.3-.4-12.2-1.5-17.5-1.7-7.9-1.8-11.6-1.2-18.4 1-11.4-7.8-25.5-7.9-25.7l-1.1.3c0 .1 8.4 13.9 7.4 25.2z"/></g><path d="M191.7 136.6s1.2 21.8 15.3 25 32.9 15.4 38.4 22.2l6.7 8.9v-9.9s-2.8-16.3-44.5-23c0 0-12-.7-11.5-23.6-.1 0-4.5-.5-4.4.4z" fill="#4b3f47"/><path d="M180.9 104.3h0s.7.9 1.8 2c2.3 2.5 6.6 6.5 11.1 7.9-.2-1.1-.2-2.4-.2-3.2.5 0 .9-.1 1.3-.3-1.4-2-3.3-4.1-3.3-4.1l-10.7-2.3z" fill="#a87861"/><path d="M178 99.3l2.9 5.1c.2.5.9 1.2 1.8 2 2.4 2.2 6.9 5.1 11 4.7.5 0 .9-.1 1.3-.3 1.6-.5 3.5-1.4 4.4-3.6 7.2-17.3-.1-30.4-.1-30.4s-23.8-4.7-26.8 2.6c-2.1 5 2.3 14.1 5.5 19.9z" class="AH"/><path d="M199.4 76.7s3.3-4.9 3.6-9.1c.2-4.1-.3-5.2-.3-5.2s-6.8 2.1-10.3 1.8c-3.5-.2-17-.7-18.8 1.7 0 0-4.9-.7-5.6 7.4-1.1 12.9 9.2 24.3 9.2 24.3s-.8-8.2.9-9.4 3.5 1.2 3.5 1.2l3.8.4s-6.7-11.8.1-12.8c6.8-.9 10 .7 13.9-.3z" fill="#515254"/><path d="M181.3 86.3c-.6-3.6-7.4-4.5-6.6-.7.7 3.8 4.3 7.2 5.8 7 1.4-.3 1.2-3.6.8-6.3z" class="AH"/><path d="M196.6 135.8s-2.7 2.3-5.7.4c0 0 1.2-5.3 1.9-5.5.6-.2 4.1 4.1 3.8 5.1z" fill="#4b3f47"/><path d="M214.3 123.9l15.1 17.3-9.4-15z" fill="#33385a"/></g><path d="M304.5 46.1h-19.1c-9.5 0-17.2 7.7-17.2 17.2v7.6c0 9.5 7.7 17.2 17.2 17.2h3.8c1.1 0 1.9.9 1.9 1.9v6.9l8.2-8.2c.4-.4.8-.6 1.4-.6h3.8c9.5 0 17.2-7.7 17.2-17.2v-7.6c0-9.5-7.7-17.2-17.2-17.2zm-22.9 24.8a3.8 3.8 0 0 1 0-7.6 3.8 3.8 0 0 1 0 7.6zm13.3 0a3.8 3.8 0 0 1 0-7.6 3.8 3.8 0 0 1 3.8 3.8c.1 2.1-1.6 3.8-3.8 3.8zm13.4 0a3.8 3.8 0 0 1 0-7.6 3.8 3.8 0 1 1 0 7.6z" fill="#ffd348"/><path d="M294.9 63.3a3.8 3.8 0 1 0 3.8 3.8c.1-2.1-1.6-3.8-3.8-3.8zm13.4 0a3.8 3.8 0 0 0 0 7.6 3.8 3.8 0 1 0 0-7.6zm-26.7 0a3.8 3.8 0 0 0 0 7.6 3.8 3.8 0 0 0 0-7.6z" class="AC"/><path d="M262.1 224.6v6.5c0 8.1-6.6 14.7-14.7 14.7h-3.3c-.4 0-.8.2-1.1.5l-7 7v-5.9a1.58 1.58 0 0 0-1.6-1.6H231c-8.1 0-14.7-6.6-14.7-14.7v-6.5c0-8.1 6.6-14.7 14.7-14.7h16.4c8.1 0 14.7 6.6 14.7 14.7z" fill="#4cb58d"/><path d="M228 225.9c0-.5-.1-.8-.3-1.1s-.6-.4-1-.4c-1 0-1.5.7-1.5 2h-2c.1-1.2.4-2.2 1.1-2.8s1.6-.9 2.6-.9c1.1 0 1.9.3 2.5.8.6.6.9 1.3.9 2.2a4.56 4.56 0 0 1-.6 2.2c-.4.7-1 1.4-1.6 2-.7.6-1.3 1.1-2.1 1.6h4.5v1.7H223v-1.5c3.3-2.4 5-4.3 5-5.8zm3.3 5.3v-1.7l5-6.7h2.2v6.6h1.4v1.8h-1.4v2.1h-2.1v-2.1h-5.1zm5.3-6l-3.1 4.2h3.1v-4.2zm9.6-5.9l-4 16.6h-2l4-16.6h2zm6.9 5l-3.8 8.9h-2.1l3.8-8.7h-4.8v-1.8h6.9v1.6z" class="AC"/><path d="M112 158.8v7.7c0 9.5-7.1 17.2-15.9 17.2h-3.5c-1 0-1.8.8-1.8 1.9v6.9l-7.6-8.2c-.3-.4-.8-.6-1.3-.6h-3.5c-8.8 0-15.9-7.7-15.9-17.2v-7.7c0-9.5 7.1-17.2 15.9-17.2h17.7c8.8.1 15.9 7.8 15.9 17.2z" fill="#b2d56d"/><path d="M96.9 167.2c-1.4 0-2.8-.2-4.1-.7-.6-.2-1.4-.1-1.8.4l-2.6 2.1c-3-1.7-4.9-3.8-6.4-7l1.9-2.7c.5-.5.6-1.3.4-2-.4-1.4-.7-2.9-.7-4.4 0-1.1-.8-1.9-1.8-1.9h-4.2c-1 0-1.8.9-1.8 1.9 0 12.5 9.4 22.7 21 22.7 1 0 1.8-.9 1.8-1.9v-4.5c.1-1.2-.7-2-1.7-2z" class="AC"/><path d="M421.9 277.9l-2.4-5.8c-3-7.2-11.3-10.6-18.5-7.6l-2.9 1.2c-.4.2-.8.2-1.2 0l-8.8-3.6 2.2 5.2c.3.8 0 1.7-.9 2.1l-2.9 1.2c-7.2 3-10.6 11.3-7.6 18.5l2.4 5.8c3 7.2 11.3 10.6 18.5 7.6l14.5-6c7.2-3.1 10.6-11.4 7.6-18.6zm-28.7 8.6c.7 1.6-.1 3.4-1.7 4.1s-3.4-.1-4.1-1.7.1-3.4 1.7-4.1 3.4.1 4.1 1.7zm10.1-4.3c.7 1.6-.1 3.4-1.7 4.1s-3.4-.1-4.1-1.7.1-3.4 1.7-4.1c1.6-.6 3.4.1 4.1 1.7zm10.1-4.2c.7 1.6-.1 3.4-1.7 4.1s-3.4-.1-4.1-1.7.1-3.4 1.7-4.1c1.6-.6 3.5.1 4.1 1.7z" fill="#3599aa"/><path d="M403.3 282.2c-.7-1.6-2.5-2.4-4.1-1.7s-2.4 2.5-1.7 4.1 2.5 2.4 4.1 1.7c1.6-.6 2.4-2.5 1.7-4.1zm10.1-4.2c-.7-1.6-2.5-2.4-4.1-1.7s-2.4 2.5-1.7 4.1 2.5 2.4 4.1 1.7c1.7-.6 2.4-2.5 1.7-4.1zm-20.2 8.5c-.7-1.6-2.5-2.4-4.1-1.7s-2.4 2.5-1.7 4.1 2.5 2.4 4.1 1.7 2.3-2.5 1.7-4.1z" class="AC"/><circle cx="350.5" cy="316.5" r="21" fill="#d86aa6"/><path d="M360.5 307.2h-20.1a2.26 2.26 0 0 0-2.3 2.3v13.9a2.26 2.26 0 0 0 2.3 2.3h20.1a2.26 2.26 0 0 0 2.3-2.3v-13.9a2.26 2.26 0 0 0-2.3-2.3zm0 1.5c.1 0 .2 0 .3.1l-10.4 9-10.4-9c.1 0 .2-.1.3-.1h20.2zm0 15.5h-20.1c-.4 0-.8-.3-.8-.8v-13l10.3 9c.1.1.3.2.5.2s.4-.1.5-.2l10.3-9v13c.1.5-.2.8-.7.8z" class="AC"/><path d="M380.8 391c0 2.6-1 4.9-2.6 6.6s-3.9 2.7-6.4 2.7H25c-5 0-9-4.2-9-9.3 0-.9.1-1.8.4-2.6.4-1.5 1.2-2.9 2.3-4 1.6-1.7 3.9-2.7 6.4-2.7h346.8c1.3 0 2.5.3 3.6.8 3.1 1.4 5.3 4.7 5.3 8.5z" fill="#f89b57"/><path d="M380.8 391c0 2.6-1 4.9-2.6 6.6s-3.9 2.7-6.4 2.7H25c-5 0-9-4.2-9-9.3 0-.9.1-1.8.4-2.6 6.8 3.4 20.3 6.2 46.5 6.2 68.2 0 301.7 4.3 309.9-3.7 2.6-2.5 3.2-5.5 2.7-8.5 3.1 1.5 5.3 4.8 5.3 8.6z" fill="#f36f3b"/><path d="M93.3 385.8s81.9 5.4 166.4 5.6 109.3-4.5 97.2-5.6c-12.2-1.2-263.6 0-263.6 0z" fill="#fec865"/><path d="M239.2 374.2s7.6.6 9.5 0 4.9 3.5 5.7 3.5h2.6s-.8-1-3.1-2.7-3.2-1.8-3.2-1.8 4.1-.3 6.3 1.2c2.2 1.6 1.5 2.8 3.6 2.8 2 .1 5.4-.8 5.6-2.8s-4.6-4.8-9.6-5.6-10.6 1.8-16.8.5c-6.4-1.3-.6 4.9-.6 4.9z" class="AI"/><path d="M243.1 369.2s-2.3 1.4-3 2.7-.9 2.3-.9 2.3h-27.1s-21.9-1.3-33.4-3c-3.1-.5-5.4-.9-6.4-1.4-.7-.4-1.4-1.1-2.1-2-3.6-4.8-6.8-15.6-7.6-18.9l-3-11.1-2.1-36.4-1-17s11.2 3.4 12.7 8.3c1.4 4.9 14.2 45.4 16.2 53l3 11s23.5 4.6 32.7 7.1c9.1 2.5 22 5.4 22 5.4z" fill="#ed3254"/><path d="M240.1 371.9c-.7 1.3-.9 2.3-.9 2.3h-27.1s-21.9-1.3-33.4-3l-8.5-3.4c-3.6-4.8-6.8-15.6-7.6-18.9l-3-11.1-2.1-36.4c.9-1.4 1.5-2.1 1.5-2.1s6.8 15.5 7.2 23.4c.3 7.9-1.7 15.7 1.8 25.6s-2.3 18.6 31.8 21.6 40.3 2 40.3 2z" opacity=".7" class="AB AD"/><path d="M191.2 381.7s2-6.2 8.1-7.5 10.1-1.8 13.8 1.5 4.6 5.9 4.6 5.9h-26.5v.1z" class="AE"/><path d="M215 377.1c-.9.3-2 1.1-4-1.4-2-2.4-4.8-3.2-4.8-3.2s1.7 2 2.3 3.2c.7 1.2 1.6 2.9 1.6 3.2s-2.2 2-3.6 0c-1.3-2-3.9-4.6-3.9-4.6s-1.7 2.3-3.7 3.6c-1 .8-2.8 1.8-5.8 1.6-4.8-.4-8.2-3.3-12.4-1.2-.6.3-1.3.5-2 .7-4.6 1.2-11.5.8-11.5.8s.5-.4 1.2-.9c-1.2-.1-2-.2-2-.2l8.2-10s.4.1 1.1.2c2.6.5 8.9 1.7 11 1.6 2.7-.1 7.2-.6 12.3-.9s10.8-1.3 13.3.9c2.7 2.4 3.6 6.3 2.7 6.6z" class="AI"/><path d="M178.8 379.2c-4.6 1.2-11.5.8-11.5.8s.5-.4 1.2-.9c-1.2-.1-2-.2-2-.2l8.2-10s.4.1 1.1.2c-.7 1.4-1.2 3.2-.6 5.4.6 2.3 2.1 3.8 3.6 4.7z" class="AG"/><path d="M160.3 262.5c-1.6 2.3-3.5 4.5-6.6 4.4-2.3-.1-4.5-.7-6.8-.9l-2.3 12.3-.2 2.9-.3 5.8-1.1 18.2-25.8-16.4-.5-11.4 2.8-6.6a106.05 106.05 0 0 0 3.7-10.4c.3-1 .5-1.9.5-2.8.1-1.4.1-2.6-.2-3.8-.9-4-3.8-7.3-7.9-12-6-7-8.7-16.4-5.4-28.6 3.2-12.2 37.7-21.9 49.9-7.2 12.4 14.6 3.4 51.8.2 56.5z" class="AI"/><path d="M154.8 207.1s-5 21.4-19.4 28.8c-14.5 7.4-18.3 6.5-25 0s-5.6-21.4-5.6-21.4-5.8 5.5-2.6 22.5c3.1 16.9 6.7 21.8 3.1 30.7-3.6 9-20.5 12.7-19.2 7.5s3.8-3.4.9-13.9-9.4-39.7.9-47.7 16.3-4.7 16.3-4.7 2.4-14 26.3-16.1c23.9-2 31.7 6 37.7 18.1 6 12-1.8 22.3-1.8 22.3s-.3-10.4-3.4-17.1c-3.2-6.7-8.2-9-8.2-9z" fill="#39143f"/><path d="M150.3 202.4s-2.1 23.1-16.3 27.3-24.7-7.7-24.7-7.7 12.8 7.9 24.7-.8 9.2-16.7 9.2-16.7-3.7 13.7-13.6 15.1c-9.9 1.3-18.8-4-18.8-4s16 8.4 20.1-5.9c4-14.2 10.2-13.9 14.6-12.7s4.8 5.4 4.8 5.4z" fill="#491c51"/><path d="M146.9 266l-2.3 12.3-.2 2.9-.6.5s-9.3-6.6-13.5-14c-1.9-3.3-4.3-7.1-6.5-10.2.1-1.4.1-2.6-.2-3.8.3.3 5.6 4.7 13.2 8.6 8 4 10.1 3.7 10.1 3.7z" class="AG"/><path d="M174.4 368.3c-.4-.1-6-.8-14.3-1.8-.2-.6-.5-1.2-.7-1.8-1.7-4.7-3.2-10.4-2.2-13.8 1.3-4.8 4.5-9.5 6.4-14.7.7-1.8 1.2-3.7 1.4-5.7.8-7.7-7.9-30.4-4.7-35.5 3.2-5 4.4-6.7-1.3-9.5-4.7-2.4-8.8-3.2-10-3.5-.2 0-.4-.1-.4-.1l-4.7-.3c-1 4.7-2.7 12.6-2.2 13.3h0l-1.4.1c-.5-.7-1.2-1.6-2.2-2.9-1.7-2.1-9.5-7.8-15.5-12l-12.1-.9s-24.8 4.7-27.2 8.7-34.6 73.4-31.9 80.5c.5 1.4 2.6 2.8 5.5 4 12 5.2 38.9 9.1 38.9 9.1h73.1s.8-3.9 1.8-6.8c0-.1.1-.2.1-.3.9-2.7 5.1-5.7 3.6-6.1zm-76.5-19.8c-.1 3.4-1 7.2-2 10.4l-12.7-1.3h-3.3l11.6-24.3 3.1-6.4s3.6 13.1 3.3 21.6z" fill="#ed3254"/><g class="AF"><path d="M152.2 299.2c-.5.8-3.6-4.2-5.7-5.8-1.6-1.2-3.2.9-4.1 1.5-.3.2-.6.3-.7.1h0c-.5-.7 1.2-8.6 2.2-13.3.5-2 .8-3.5.8-3.5s3.7 1.1 4.1 3c0 .2.1.5.2.8.8 3.8 3.7 16.5 3.2 17.2z"/><path d="M145.8 324.7c-.8 9.2-4 16.4-5.8 22.1s-2 17.1-2 17.1l-1.1-.1-1.4-.2s0-11.6 2.7-21.2 4.2-14.8 4.3-21.5c.2-6.1-4.6-22.1-5.5-25-.1-.3-.1-.5-.1-.5l3.4-.3 1.4-.1.7-.1s4.2 20.6 3.4 29.8z"/></g><path d="M157 366.2L95.9 359c1-3.3 1.9-7 2-10.4.2-8.5-3.3-21.6-3.3-21.6s4.9-13.9 6.5-15.5-2 25.4 9.4 38.4c9.3 10.6 37.1 15 46.5 16.3z" opacity=".7" class="AB AD"/><path d="M86.6 360.7s78 6.5 76.5 9.6c-1.6 3.1-12 8.9-41.9 2.7-30-6.2-34.6-12.3-34.6-12.3z" opacity=".28" class="AB AF"/><path d="M91.5 333.4l-11.6 24.3s-13 4-11 1.3c2-2.6 13.3-7.8 20.1-21.4 1-2.3 1.9-3.6 2.5-4.2z" opacity=".7" class="AB AD"/><path d="M83.2 294.9s5.6 14.1-1.1 26.6-12.5 30.3-19.8 33.7c-7.4 3.3-3.1-4.3 7.4-28.2l13.5-32.1z" opacity=".28" class="AB AF"/><path d="M170.6 374.9c-1 2.9-1.8 6.8-1.8 6.8H95.7s-26.9-3.9-38.9-9.1c7.2 2.2 16.7 4.3 28.6 5.3 31 2.7 77.5 3.3 81.4 0 1.5-1.2 2.6-2.3 3.8-3z" opacity=".7" class="AB AD"/><path d="M140.6 296.9c-.4 0-1.9-.6-3.6-1.1-2.5-.7-5.6-1-7.6 1.1-3.3 3.7-3.3 8.7-4.5 6.7s-14.3-22.1-14.4-24.2c-.1-2.2 4.9-4.2 4.9-4.2l7.2 5c6 4.2 13.8 9.9 15.5 12 1 1.2 1.7 2.2 2.2 2.9.9 1.3.9 1.8.3 1.8z" class="AF"/><path d="M115 278.2s3.3 8.1 6.5 12.1 13.7 5.4 12.4 2c-1.4-3.2-18.9-14.1-18.9-14.1z" opacity=".5" fill="#f69eaf" class="AB"/><path d="M159.5 364.7c-6-.9-12.8-3.2-16.2-5.8-4.5-3.4 10.2 3 11.7 1.8s2.3-9.8-14.3-10.5-25.1-6.7-27.7-9.9c-2.5-3.2 15.9 6.4 32.9 3.7 9.2-1.4 14.7-5 17.8-7.9-1.9 5.3-5 9.9-6.4 14.7-1 3.5.5 9.2 2.2 13.9z" opacity=".35" class="AB AD"/><path d="M117.3 309.8c-3.8-.2-6.6 3.6-5.3 7.2 1.7 4.7 5.3 10 12.8 12.4 15.4 5 35.2.5 34.2-7.9s-10.7-19.4-27.4-14c-6.5 2-11.1 2.5-14.3 2.3z" opacity=".28" class="AB AF"/><circle cx="118.7" cy="238.1" r="10.9" class="AE"/><circle cx="115.5" cy="237.2" r="10.9" fill="#4e4293"/><path d="M120.4 238.2c0 2.6-2.1 4.8-4.8 4.8s-4.8-2.1-4.8-4.8c0-2.6 2.1-4.8 4.8-4.8s4.8 2.1 4.8 4.8z" fill="#5c5da9"/><path d="M148.5 259.4h-.1l-16-1.4a9.29 9.29 0 0 1-6.8-3.8L114.5 239c-.4-.6-.3-1.4.3-1.9s1.4-.3 1.9.3l11.2 15.3c1.1 1.6 2.9 2.6 4.8 2.7l16 1.4c.7.1 1.3.7 1.2 1.4s-.7 1.2-1.4 1.2z" fill="#6a69b0"/><path d="M152.1 260.7h-3.7c-1.7 0-3-1.3-3-3h0c0-1.7 1.3-3 3-3h3.7c1.7 0 3 1.3 3 3h0c0 1.7-1.3 3-3 3z" class="AE"/><path d="M140.8 192.6s-9 .6-14.4 8.3c-5.4 7.6-3.1 17-4 18s-2.6.5-2.7 1.9c-.1.7 0 2.4 0 3.9 0 1.3.1 2.5.1 2.5l-5.5-.8s.1-1.6.1-3.4-.2-3.7-.8-4.3c-1.2-1.1-2.5-.3-2.7-3.2-.3-2.9.3-18.3 12.1-22.9 11.7-4.7 17.8 0 17.8 0z" fill="#4e4293"/><path d="M92.4 269.7s8.7-10.6 3-26.7-5.2-20.3-1.3-26.8c3.8-6.5 10.9-5.5 10.5-4.7s-1.9 1.2-4.5 6.9c-2.5 5.7 2.3 25.5 3.5 36.4s-7.6 16.8-5.7 14.9c1.9-1.8-1.9 1.8-1.9 1.8s4.8-6.3 5.1-10.8l.3-4.5s-5 14-8.5 16.4-.5-2.9-.5-2.9z" fill="#491c51"/><path d="M114.3 226.3l.1-3.4c.4.3.7.5 1.1.7 1.3.6 2.7.9 4.2 1l.1 2.5-5.5-.8z" class="AE"/><path d="M132.9 192.5s-6.5-1.5-11.5 9.2-5.6 17.7-7.1 13.9-2.4-7.6 2.8-15.2c5.1-7.6 15.8-7.9 15.8-7.9z" opacity=".3" fill="#6a69b0" class="AB"/><path d="M320.5 291.1v54.6c0 5.1-4.2 9.3-9.3 9.3h-83.6c-5.1 0-9.3-4.2-9.3-9.3v-54.6c0-5.1 4.2-9.3 9.3-9.3h83.6c5.1 0 9.3 4.2 9.3 9.3z" fill="#b6dce5"/><g class="AJ"><path d="M227.5 355H224c-5.1 0-9.3-4.2-9.3-9.3v-54.6c0-5.1 4.2-9.3 9.3-9.3h3.5c-5.1 0-9.3 4.2-9.3 9.3v54.6c.1 5.1 4.2 9.3 9.3 9.3z"/><use xlink:href="#B"/><use xlink:href="#C"/><use xlink:href="#D"/><use xlink:href="#B" x="12.2"/><use xlink:href="#C" x="12.2"/><use xlink:href="#D" x="-77.1"/><use xlink:href="#B" x="-64.9"/><use xlink:href="#B" x="-60.8"/><use xlink:href="#D" x="-64.9"/><use xlink:href="#B" x="-52.7"/><path d="M320.5 335.6v10.1c0 5.1-4.2 9.3-9.3 9.3h-83.6c-5.1 0-9.3-4.2-9.3-9.3v-11.5c10 5.6 26.8 10.1 54.9 10.1 20.8 0 36.1-3.6 47.3-8.7z" opacity=".62" class="AB"/></g><path d="M297.6 374.7c-.1.5-.2.9-.4 1.2-2.3 4.6-7 5.8-7 5.8h-23.8s4.1-1.2 2.9-7c-.1-.7-.4-1.9-.8-3.3l-3.2-11.4c-2.4-8.3-5.2-18.1-6.6-25-.6-2.9-1-5.2-1-6.8 0-8.1 5.8-11.6 9.3-11.6.6 0 1.4 0 2.3-.1 4.5-.2 12.2-.5 15.1 2.4 3.3 3.3 2.4 12.8 5.3 25.6.2.8.3 1.5.5 2.3.1.2.1.5.2.7 3.3 12.5 8.2 22.1 7.2 27.2z" fill="#ccebf2"/><path d="M266.5 381.7h-30.8v-3.5h20.9c7 0 9.3-1.2 8.1-8.1-1.2-7-11.6-39.5-10.5-47.6 1.1-7.9 14.3-6 15.1-5.9-.9 0-1.7.1-2.3.1-3.5 0-9.3 3.5-9.3 11.6s10.5 40.6 11.6 46.5c1.2 5.7-2.8 6.9-2.8 6.9z" class="AJ"/><path d="M290.4 347.6c-4.7-.2-9.8.5-14.1 3.4-4.9 3.3-8.9 6.3-11 9.1-2.4-8.3-5.2-18.1-6.6-25 2.8 2.8 7.4 5.7 15 7.5a74.82 74.82 0 0 0 16 2.1c.2.8.3 1.5.5 2.3.1.1.2.3.2.6zm7.2 27.1c-.1.5-.2.9-.4 1.2-2.3 4.6-7 5.8-7 5.8h-23.8s4.1-1.2 2.9-7c-.1-.7-.4-1.9-.8-3.3 7.7 5.5 18.3 7.5 29.1 3.3z" opacity=".35" class="AJ"/><path d="M337.4 357.5h-3.2v-1.3h-24.9v20c.1 3.1 2.7 5.5 5.8 5.5h13.3c2.7 0 4.9-1.8 5.6-4.2h3.4c.3 0 .5 0 .8-.1 2.8-.4 5-2.8 5-5.7v-8.4c0-3.2-2.6-5.8-5.8-5.8zm3.3 14c0 1.7-1.2 3.1-2.7 3.4-.2 0-.5.1-.8.1h-3.1v-15.1h3.1c1.9 0 3.5 1.6 3.5 3.5v8.1z" class="AE"/><path d="M338.2 377.4c-.2 0-.5.1-.8.1H334c-.7 2.4-2.9 4.2-5.6 4.2h-13.3c-3.1 0-5.7-2.5-5.8-5.5 2.5.6 6.5 1 12.5.4 13.2-1.4 13.2-14.9 9.9-12.1s-18.6 8.2-18.9 6c-.3-2.1 10.5-5.3 15.4-8 2.5-1.4 4-4 5-6.3h1.1v1.3h1.3c.1.8.3 1.6.5 2.5h-1.7v15h3.1c.3 0 .5 0 .8-.1a7.18 7.18 0 0 0-.1 2.5z" fill="#36357b"/></svg>