<svg width="430" height="424" viewBox="0 0 430 424" fill="none" xmlns="http://www.w3.org/2000/svg">
<path d="M383.813 296.357H101.416C79.2935 272.669 33.1776 206.523 25.6945 131.439C16.3407 37.5827 114.333 -55.3794 214.553 40.2643C314.773 135.908 357.088 110.433 376.686 110.433C471.116 110.433 418.259 252.259 383.813 296.357Z" fill="#49B26A"/>
<mask id="mask0" mask-type="alpha" maskUnits="userSpaceOnUse" x="25" y="0" width="405" height="297">
<path d="M383.813 296.357H101.416C79.2935 272.669 33.1776 206.523 25.6945 131.439C16.3407 37.5827 114.333 -55.3794 214.553 40.2643C314.773 135.908 357.088 110.433 376.686 110.433C471.116 110.433 418.259 252.259 383.813 296.357Z" fill="#49B26A"/>
</mask>
<g mask="url(#mask0)">
<circle cx="83.5" cy="223.5" r="94.5" fill="#41A046"/>
<circle opacity="0.3" cx="200.5" cy="10.5" r="94.5" fill="#D9EDD3"/>
<circle opacity="0.4" cx="445" cy="254" r="87" fill="#B9D796"/>
</g>
<rect x="266" y="90" width="135.51" height="143" rx="7.84973" fill="#18C9DB"/>
<rect x="82" y="44" width="206" height="212" rx="7.84973" fill="#EEFDFF"/>
<circle cx="316.48" cy="128.872" r="19.48" fill="#A6E3EB"/>
<mask id="mask1" mask-type="alpha" maskUnits="userSpaceOnUse" x="297" y="109" width="39" height="40">
<circle cx="316.48" cy="128.872" r="19.48" fill="#A6E3EB"/>
</mask>
<g mask="url(#mask1)">
<path d="M318.888 136.148C317.893 136.148 315.706 134.566 320.045 146.996C323.229 156.118 306.2 152.502 308.763 146.996C311.887 140.285 313.536 135.136 313.97 133.4C313.633 133.496 312.776 133.08 311.945 131.095C309.341 124.875 311.945 124.875 317.876 121.25C323.234 117.974 323.661 132.387 323.227 134.412C322.793 136.437 320.479 136.148 318.888 136.148Z" fill="#F8B79B"/>
<mask id="mask2" mask-type="alpha" maskUnits="userSpaceOnUse" x="308" y="120" width="16" height="33">
<path d="M318.888 136.148C317.893 136.148 315.706 134.566 320.045 146.996C323.229 156.118 306.2 152.502 308.763 146.996C311.887 140.285 313.536 135.136 313.97 133.4C313.633 133.496 312.776 133.08 311.945 131.095C309.341 124.875 311.945 124.875 317.876 121.25C323.234 117.974 323.661 132.387 323.227 134.412C322.793 136.437 320.479 136.148 318.888 136.148Z" fill="#AD6E47"/>
</mask>
<g mask="url(#mask2)">
<path d="M320.506 137.298C318.886 136.604 315.492 134.839 314.287 133.682C313.997 133.441 313.534 132.997 313.766 134.154C315.27 138.551 317.768 142.64 318.828 143.411C319.214 142.495 320.506 138.455 320.506 137.298Z" fill="#ED9E7C"/>
<path d="M322.215 135.29C324.413 131.24 319.177 125.02 320.334 121.115C320.913 120.883 324.625 126.177 326.12 128.926L324.529 137.893C322.745 138.713 320.016 139.34 322.215 135.29Z" fill="#FFCCB6"/>
</g>
<path d="M314.804 131.671C315.333 131.812 315.09 133.532 313.936 134.13C312.056 132.683 307.583 125.083 307.716 122.269C307.882 118.751 316.631 115.576 319.172 115.004C321.714 114.432 322.735 121.346 322.396 122.048C322.057 122.751 317.682 122.704 317.069 123.008C316.456 123.312 314.534 123.58 315.844 125.145C316.892 126.397 315.912 126.897 317.032 128.633C316.776 128.887 315.868 129.324 315.382 128.344C311.388 124.75 312.634 131.092 314.804 131.671Z" fill="black"/>
<mask id="mask3" mask-type="alpha" maskUnits="userSpaceOnUse" x="307" y="114" width="16" height="21">
<path d="M314.804 131.671C315.333 131.812 315.09 133.532 313.936 134.13C312.056 132.683 307.583 125.083 307.716 122.269C307.882 118.751 316.631 115.576 319.172 115.004C321.714 114.432 322.735 121.346 322.396 122.048C322.057 122.751 317.682 122.704 317.069 123.008C316.456 123.312 314.534 123.58 315.844 125.145C316.892 126.397 315.912 126.897 317.032 128.633C316.776 128.887 315.868 129.324 315.382 128.344C311.388 124.75 312.634 131.092 314.804 131.671Z" fill="black"/>
</mask>
<g mask="url(#mask3)">
<path opacity="0.7" d="M316.922 134.408C317.422 134.541 317.193 136.168 316.101 136.732C314.324 135.365 310.511 130.375 310.636 127.715C310.694 126.491 312.068 126.429 314.092 124.012C316.101 116.36 322.485 113.531 322.485 116.854C322.485 119.316 324.418 124.65 324.098 125.313C323.777 125.977 319.642 125.933 319.063 126.22C318.484 126.507 316.667 126.761 317.905 128.24C318.895 129.424 317.969 129.897 319.028 131.537C318.786 131.777 317.928 132.191 317.469 131.264C313.693 127.867 314.871 133.861 316.922 134.408Z" fill="#3D565F"/>
</g>
</g>
<circle cx="369.48" cy="128.48" r="19.48" fill="#A6E3EB"/>
<mask id="mask4" mask-type="alpha" maskUnits="userSpaceOnUse" x="350" y="109" width="39" height="39">
<circle cx="369.48" cy="128.48" r="19.48" fill="#A6E3EB"/>
</mask>
<g mask="url(#mask4)">
<path d="M371.896 141.076C371.359 141.02 370.267 140.046 371.917 146.991C373.127 152.088 364.144 149.191 365.832 146.364C367.89 142.918 369.065 140.232 369.396 139.32C369.209 139.354 368.77 139.081 368.432 137.964C367.373 134.465 368.777 134.61 372.177 132.984C375.249 131.515 374.679 139.313 374.333 140.381C373.986 141.449 372.754 141.164 371.896 141.076Z" fill="#FFB26A"/>
<mask id="mask5" mask-type="alpha" maskUnits="userSpaceOnUse" x="365" y="132" width="10" height="18">
<path d="M371.896 141.076C371.359 141.02 370.267 140.046 371.917 146.991C373.127 152.088 364.144 149.191 365.832 146.364C367.89 142.918 369.065 140.232 369.396 139.32C369.209 139.354 368.77 139.081 368.432 137.964C367.373 134.465 368.777 134.61 372.177 132.984C375.249 131.515 374.679 139.313 374.333 140.381C373.986 141.449 372.754 141.164 371.896 141.076Z" fill="#AD6E47"/>
</mask>
<g mask="url(#mask5)">
<path d="M372.704 141.786C371.869 141.321 370.136 140.181 369.55 139.49C369.408 139.344 369.182 139.078 369.243 139.715C369.81 142.171 370.93 144.515 371.459 144.99C371.718 144.517 372.64 142.41 372.704 141.786Z" fill="#F09A4B"/>
<path d="M373.737 140.797C375.148 138.735 372.67 135.09 373.511 133.048C373.836 132.955 375.544 136.016 376.197 137.582L374.841 142.33C373.833 142.673 372.327 142.86 373.737 140.797Z" fill="#FFC086"/>
</g>
<path d="M375.454 131.441C375.767 132.327 374.892 133.898 374.372 134.558C373.867 134.119 370.7 133.47 371.163 135.094C371.701 136.98 370.248 137.308 369.844 137.954C369.664 137.706 368.216 136.919 368.563 138.138C368.911 139.356 363.65 134.557 366.097 132.996C349.711 134.462 347.33 113.848 364.575 113.418C372.306 113.225 369.511 127.575 368.552 131.356C372.375 131.75 373.888 127.018 375.454 131.441Z" fill="#3D565F"/>
<mask id="mask6" mask-type="alpha" maskUnits="userSpaceOnUse" x="352" y="113" width="24" height="26">
<path d="M375.453 131.441C375.767 132.327 374.892 133.898 374.372 134.558C373.866 134.119 370.699 133.47 371.163 135.094C371.701 136.98 370.247 137.308 369.843 137.954C369.664 137.706 368.215 136.919 368.563 138.138C368.91 139.356 363.649 134.557 366.097 132.996C349.71 134.462 347.329 113.848 364.575 113.418C372.306 113.225 369.51 127.575 368.552 131.356C372.375 131.75 373.887 127.018 375.453 131.441Z" fill="#3D565F"/>
</mask>
<g mask="url(#mask6)">
<path d="M360.584 129.406C356.178 128.042 356.905 121.262 364.642 112.155L348.828 118.488L353.323 131.352L364.49 140.632L369.649 140.896L377.274 131.369C376.87 130.979 375.911 130.417 375.309 131.297C374.556 132.397 372.638 133.06 371.623 133.183C370.609 133.305 370.689 134.27 369.866 135.001C369.624 135.215 369.512 134.796 368.599 134.741C367.686 134.687 368.477 133.727 367.292 132.098C366.691 131.272 362.484 129.795 360.584 129.406Z" fill="url(#paint0_linear)"/>
</g>
</g>
<circle r="19.48" transform="matrix(-1 0 0 1 316.48 194.48)" fill="#A6E3EB"/>
<mask id="mask7" mask-type="alpha" maskUnits="userSpaceOnUse" x="297" y="175" width="39" height="39">
<circle r="19.48" transform="matrix(-1 0 0 1 316.48 194.48)" fill="#A6E3EB"/>
</mask>
<g mask="url(#mask7)">
<path d="M324.03 205.498C320.565 204.421 320.339 201.416 320.364 200.658L319.19 201.098C319.166 202.858 319.234 206.818 319.704 208.578L319.704 208.581C320.174 210.341 320.903 213.076 322.149 214.127C326.459 213.453 329.691 207.258 324.03 205.498Z" fill="#28363C"/>
<path d="M320.777 201.204C319.85 201.204 317.814 199.731 321.855 211.306C324.819 219.799 308.963 216.432 311.349 211.306C314.258 205.056 315.794 200.262 316.198 198.645C315.884 198.735 315.086 198.348 314.312 196.499C311.888 190.707 314.312 190.707 319.834 187.332C324.824 184.282 325.222 197.702 324.818 199.588C324.414 201.474 322.259 201.204 320.777 201.204Z" fill="#AD6E47"/>
<mask id="mask8" mask-type="alpha" maskUnits="userSpaceOnUse" x="311" y="186" width="14" height="31">
<path d="M320.777 201.204C319.85 201.204 317.814 199.731 321.855 211.306C324.819 219.799 308.963 216.432 311.349 211.306C314.258 205.056 315.794 200.262 316.198 198.645C315.884 198.735 315.086 198.348 314.312 196.499C311.888 190.707 314.312 190.707 319.834 187.332C324.824 184.282 325.222 197.702 324.818 199.588C324.414 201.474 322.259 201.204 320.777 201.204Z" fill="#AD6E47"/>
</mask>
<g mask="url(#mask8)">
<path d="M322.284 202.274C320.776 201.628 317.615 199.985 316.493 198.907C316.223 198.683 315.792 198.269 316.008 199.347C317.408 203.441 319.734 207.248 320.722 207.967C321.081 207.114 322.284 203.352 322.284 202.274Z" fill="#704226"/>
<path d="M323.875 200.404C325.923 196.633 321.047 190.842 322.124 187.205C322.663 186.99 326.12 191.919 327.512 194.478L326.03 202.829C324.369 203.592 321.828 204.175 323.875 200.404Z" fill="#C87E50"/>
</g>
<path d="M309.908 203.342C301.692 208.729 308.265 213.982 313.544 215.867C318.393 213.712 313.857 209.433 314.487 205.497C314.717 204.059 316.296 200.141 316.373 199.032C316.476 197.543 315.413 196.91 315.161 196.742C314.721 196.449 314.354 194.562 315.161 194.048C315.967 193.535 315.604 195.823 316.777 195.53C317.95 195.237 315.43 188.93 321.072 189.615C322.671 189.809 324.303 189.365 324.185 187.782C323.377 177.007 311.798 188.424 311.539 187.782C308.696 180.714 307.171 180.782 303.578 184.082C300.703 186.722 306.002 191.22 310.44 190.129C310.244 191.057 308.965 191.355 309.369 194.048C309.756 196.624 312.982 201.326 309.908 203.342Z" fill="#28363C"/>
<mask id="mask9" mask-type="alpha" maskUnits="userSpaceOnUse" x="302" y="181" width="23" height="35">
<path d="M309.908 203.342C301.692 208.729 308.265 213.982 313.544 215.867C318.393 213.712 313.857 209.433 314.487 205.497C314.717 204.059 316.296 200.141 316.373 199.032C316.476 197.543 315.413 196.91 315.161 196.742C314.721 196.449 314.354 194.562 315.161 194.048C315.967 193.535 315.604 195.823 316.777 195.53C317.95 195.237 315.43 188.93 321.072 189.615C322.671 189.809 324.303 189.365 324.185 187.782C323.377 177.007 311.798 188.424 311.539 187.782C308.696 180.714 307.171 180.782 303.578 184.082C300.703 186.721 306.002 191.22 310.44 190.129C310.244 191.057 308.965 191.355 309.369 194.048C309.756 196.624 312.982 201.326 309.908 203.342Z" fill="#28363C"/>
</mask>
<g mask="url(#mask9)">
<path d="M309.622 204.957C307.259 206.217 312.467 216.435 313.123 217.223C317.586 215.714 324.191 201.334 332.854 189.206C341.516 177.078 329.638 179.297 322.616 181.922C323.141 182.447 323.994 184.087 323.206 186.45C322.222 189.403 318.087 187.828 317.103 189.206C316.119 190.584 315.922 191.372 313.756 191.766C311.59 192.159 312.575 194.719 313.756 197.672C314.937 200.625 312.575 203.382 309.622 204.957Z" fill="black"/>
</g>
</g>
<circle cx="369.48" cy="193.48" r="19.48" fill="#A6E3EB"/>
<mask id="mask10" mask-type="alpha" maskUnits="userSpaceOnUse" x="350" y="174" width="39" height="39">
<circle cx="369.48" cy="193.48" r="19.48" fill="#A6E3EB"/>
</mask>
<g mask="url(#mask10)">
<g clip-path="url(#clip0)">
<path d="M370.543 204.473C373.784 202.627 373.902 195.164 373.902 195.164C373.902 189.35 364.082 189.743 364.082 195.164C364.082 195.164 364.219 202.824 367.558 204.552C368.01 206.084 368.049 208.225 365.81 210.876C363.276 213.901 375.454 213.39 372.881 210.876C370.76 208.794 370.327 206.202 370.543 204.473Z" fill="#F8B79B"/>
</g>
<g clip-path="url(#clip1)">
<mask id="mask11" mask-type="alpha" maskUnits="userSpaceOnUse" x="364" y="190" width="10" height="23">
<path d="M370.543 204.473C373.784 202.627 373.902 195.164 373.902 195.164C373.902 189.35 364.082 189.743 364.082 195.164C364.082 195.164 364.219 202.824 367.558 204.552C368.01 206.084 368.049 208.225 365.81 210.876C363.276 213.901 375.454 213.39 372.881 210.876C370.76 208.794 370.327 206.202 370.543 204.473Z" fill="#AD6E47"/>
</mask>
<g mask="url(#mask11)">
<path d="M371.251 204.049C369.129 204.992 367.355 204.507 366.733 204.147L366.438 209.058C368.926 206.995 373.372 203.106 371.251 204.049Z" fill="#D07D4A"/>
</g>
</g>
<path d="M368.414 185.835C356.492 181.68 358.086 193.675 364.388 197.914C364.764 196.396 365.125 193.725 366.395 192.597C369.69 189.665 374.157 193.985 373.619 197.914C383.145 193.035 377.469 181.161 372.833 181.023C370.067 180.94 369.369 186.2 368.414 185.835Z" fill="#3D565F"/>
<mask id="mask12" mask-type="alpha" maskUnits="userSpaceOnUse" x="359" y="181" width="20" height="17">
<path d="M368.414 185.835C356.492 181.68 358.086 193.675 364.388 197.914C364.764 196.396 365.125 193.725 366.395 192.597C369.69 189.665 374.157 193.985 373.619 197.914C383.145 193.035 377.469 181.161 372.833 181.023C370.067 180.94 369.369 186.2 368.414 185.835Z" fill="#3D565F"/>
</mask>
<g mask="url(#mask12)">
<path d="M363.565 193.773C361.412 195.526 360.04 189.192 360.361 185.835L354.816 188.297L360.124 201.343L383.951 196.444L378.437 177.824C374.849 177.739 368.651 178.445 372.559 181.955C377.443 186.343 375.86 194.629 373.836 192.533C368.316 186.817 366.255 191.582 363.565 193.773Z" fill="url(#paint1_linear)"/>
</g>
</g>
<ellipse cx="259.5" cy="75" rx="14.5" ry="14" fill="#16B9CA"/>
<g clip-path="url(#clip2)">
<path d="M262.836 84.6615C262.828 84.6615 262.819 84.6615 262.811 84.6614C261.557 84.6551 260.378 84.1797 259.491 83.3228L250.877 74.9979C249.033 73.2161 249.033 70.317 250.877 68.5352L252.396 67.0675C252.497 66.9699 252.634 66.915 252.777 66.915C252.919 66.915 253.056 66.9699 253.157 67.0675L257.01 70.7906C257.22 70.9935 257.22 71.3225 257.01 71.5255L255.232 73.2438C255.115 73.357 255.115 73.5412 255.232 73.6544L260.899 79.1311C260.955 79.1858 261.031 79.2158 261.111 79.2158C261.19 79.2158 261.266 79.1857 261.322 79.131L263.1 77.4127C263.201 77.3151 263.338 77.2603 263.481 77.2603C263.624 77.2603 263.761 77.3151 263.862 77.4127L267.715 81.1358C267.816 81.234 267.873 81.3672 267.872 81.506C267.871 81.6448 267.813 81.7775 267.711 81.8746L266.144 83.3566C265.255 84.1986 264.081 84.6615 262.836 84.6615Z" fill="#B9D796"/>
<path d="M255.302 73.1758L256.064 72.4402L251.449 67.9824L250.877 68.5351C250.814 68.5965 250.753 68.6594 250.693 68.7233L255.302 73.1758Z" fill="url(#paint2_linear)"/>
<path d="M262.153 78.3281L261.392 79.0637L265.985 83.5006C266.039 83.454 266.092 83.4062 266.144 83.357L266.758 82.7762L262.153 78.3281Z" fill="url(#paint3_linear)"/>
<path d="M267.232 75.1039C266.935 75.1039 266.694 74.8711 266.694 74.584C266.694 71.1462 263.8 68.3494 260.243 68.3494C259.946 68.3494 259.705 68.1166 259.705 67.8295C259.705 67.5424 259.946 67.3096 260.243 67.3096C264.394 67.3096 267.771 70.5728 267.771 74.584C267.771 74.8711 267.53 75.1039 267.232 75.1039Z" fill="#EEFDFF"/>
<path d="M264.896 74.994C264.599 74.994 264.358 74.7612 264.358 74.4741C264.358 72.1841 262.43 70.3211 260.061 70.3211C259.764 70.3211 259.522 70.0883 259.522 69.8012C259.522 69.514 259.764 69.2812 260.061 69.2812C263.024 69.2812 265.435 71.6108 265.435 74.4741C265.435 74.7612 265.194 74.994 264.896 74.994Z" fill="#EEFDFF"/>
<path d="M262.742 74.9944C262.445 74.9944 262.204 74.7616 262.204 74.4745C262.204 73.3323 261.243 72.4031 260.061 72.4031C259.764 72.4031 259.522 72.1703 259.522 71.8832C259.522 71.5961 259.764 71.3633 260.061 71.3633C261.836 71.3633 263.281 72.759 263.281 74.4745C263.281 74.7616 263.04 74.9944 262.742 74.9944Z" fill="#EEFDFF"/>
</g>
<ellipse cx="259.5" cy="125" rx="14.5" ry="14" fill="#16B9CA"/>
<g clip-path="url(#clip3)">
<path d="M262.836 134.662C262.828 134.662 262.819 134.661 262.811 134.661C261.557 134.655 260.378 134.18 259.491 133.323L250.877 124.998C249.033 123.216 249.033 120.317 250.877 118.535L252.396 117.067C252.497 116.97 252.634 116.915 252.777 116.915C252.919 116.915 253.056 116.97 253.157 117.067L257.01 120.791C257.22 120.994 257.22 121.323 257.01 121.525L255.232 123.244C255.115 123.357 255.115 123.541 255.232 123.654L260.899 129.131C260.955 129.186 261.031 129.216 261.111 129.216C261.19 129.216 261.266 129.186 261.322 129.131L263.1 127.413C263.201 127.315 263.338 127.26 263.481 127.26C263.624 127.26 263.761 127.315 263.862 127.413L267.715 131.136C267.816 131.234 267.873 131.367 267.872 131.506C267.871 131.645 267.813 131.777 267.711 131.875L266.144 133.357C265.255 134.199 264.081 134.661 262.836 134.662Z" fill="#B9D796"/>
<path d="M255.302 123.176L256.064 122.44L251.449 117.982L250.877 118.535C250.814 118.596 250.753 118.659 250.693 118.723L255.302 123.176Z" fill="url(#paint4_linear)"/>
<path d="M262.153 128.328L261.392 129.064L265.985 133.501C266.039 133.454 266.092 133.406 266.144 133.357L266.758 132.776L262.153 128.328Z" fill="url(#paint5_linear)"/>
<path d="M267.232 125.104C266.935 125.104 266.694 124.871 266.694 124.584C266.694 121.146 263.8 118.349 260.243 118.349C259.946 118.349 259.705 118.117 259.705 117.829C259.705 117.542 259.946 117.31 260.243 117.31C264.394 117.31 267.771 120.573 267.771 124.584C267.771 124.871 267.53 125.104 267.232 125.104Z" fill="#EEFDFF"/>
<path d="M264.896 124.994C264.599 124.994 264.358 124.761 264.358 124.474C264.358 122.184 262.43 120.321 260.061 120.321C259.764 120.321 259.522 120.088 259.522 119.801C259.522 119.514 259.764 119.281 260.061 119.281C263.024 119.281 265.435 121.611 265.435 124.474C265.435 124.761 265.194 124.994 264.896 124.994Z" fill="#EEFDFF"/>
<path d="M262.742 124.994C262.445 124.994 262.204 124.762 262.204 124.474C262.204 123.332 261.243 122.403 260.061 122.403C259.764 122.403 259.522 122.17 259.522 121.883C259.522 121.596 259.764 121.363 260.061 121.363C261.836 121.363 263.281 122.759 263.281 124.474C263.281 124.762 263.04 124.994 262.742 124.994Z" fill="#EEFDFF"/>
</g>
<ellipse cx="259.5" cy="175" rx="14.5" ry="14" fill="#16B9CA"/>
<g clip-path="url(#clip4)">
<path d="M262.836 184.662C262.828 184.662 262.819 184.661 262.811 184.661C261.557 184.655 260.378 184.18 259.491 183.323L250.877 174.998C249.033 173.216 249.033 170.317 250.877 168.535L252.396 167.067C252.497 166.97 252.634 166.915 252.777 166.915C252.919 166.915 253.056 166.97 253.157 167.067L257.01 170.791C257.22 170.994 257.22 171.323 257.01 171.525L255.232 173.244C255.115 173.357 255.115 173.541 255.232 173.654L260.899 179.131C260.955 179.186 261.031 179.216 261.111 179.216C261.19 179.216 261.266 179.186 261.322 179.131L263.1 177.413C263.201 177.315 263.338 177.26 263.481 177.26C263.624 177.26 263.761 177.315 263.862 177.413L267.715 181.136C267.816 181.234 267.873 181.367 267.872 181.506C267.871 181.645 267.813 181.777 267.711 181.875L266.144 183.357C265.255 184.199 264.081 184.661 262.836 184.662Z" fill="#B9D796"/>
<path d="M255.302 173.176L256.064 172.44L251.449 167.982L250.877 168.535C250.814 168.596 250.753 168.659 250.693 168.723L255.302 173.176Z" fill="url(#paint6_linear)"/>
<path d="M262.153 178.328L261.392 179.064L265.985 183.501C266.039 183.454 266.092 183.406 266.144 183.357L266.758 182.776L262.153 178.328Z" fill="url(#paint7_linear)"/>
<path d="M267.232 175.104C266.935 175.104 266.694 174.871 266.694 174.584C266.694 171.146 263.8 168.349 260.243 168.349C259.946 168.349 259.705 168.117 259.705 167.829C259.705 167.542 259.946 167.31 260.243 167.31C264.394 167.31 267.771 170.573 267.771 174.584C267.771 174.871 267.53 175.104 267.232 175.104Z" fill="#EEFDFF"/>
<path d="M264.896 174.994C264.599 174.994 264.358 174.761 264.358 174.474C264.358 172.184 262.43 170.321 260.061 170.321C259.764 170.321 259.522 170.088 259.522 169.801C259.522 169.514 259.764 169.281 260.061 169.281C263.024 169.281 265.435 171.611 265.435 174.474C265.435 174.761 265.194 174.994 264.896 174.994Z" fill="#EEFDFF"/>
<path d="M262.742 174.994C262.445 174.994 262.204 174.762 262.204 174.474C262.204 173.332 261.243 172.403 260.061 172.403C259.764 172.403 259.522 172.17 259.522 171.883C259.522 171.596 259.764 171.363 260.061 171.363C261.836 171.363 263.281 172.759 263.281 174.474C263.281 174.762 263.04 174.994 262.742 174.994Z" fill="#EEFDFF"/>
</g>
<ellipse cx="259.5" cy="225" rx="14.5" ry="14" fill="#16B9CA"/>
<g clip-path="url(#clip5)">
<path d="M262.836 234.662C262.828 234.662 262.819 234.661 262.811 234.661C261.557 234.655 260.378 234.18 259.491 233.323L250.877 224.998C249.033 223.216 249.033 220.317 250.877 218.535L252.396 217.067C252.497 216.97 252.634 216.915 252.777 216.915C252.919 216.915 253.056 216.97 253.157 217.067L257.01 220.791C257.22 220.994 257.22 221.323 257.01 221.525L255.232 223.244C255.115 223.357 255.115 223.541 255.232 223.654L260.899 229.131C260.955 229.186 261.031 229.216 261.111 229.216C261.19 229.216 261.266 229.186 261.322 229.131L263.1 227.413C263.201 227.315 263.338 227.26 263.481 227.26C263.624 227.26 263.761 227.315 263.862 227.413L267.715 231.136C267.816 231.234 267.873 231.367 267.872 231.506C267.871 231.645 267.813 231.777 267.711 231.875L266.144 233.357C265.255 234.199 264.081 234.661 262.836 234.662Z" fill="#B9D796"/>
<path d="M255.302 223.176L256.064 222.44L251.449 217.982L250.877 218.535C250.814 218.596 250.753 218.659 250.693 218.723L255.302 223.176Z" fill="url(#paint8_linear)"/>
<path d="M262.153 228.328L261.392 229.064L265.985 233.501C266.039 233.454 266.092 233.406 266.144 233.357L266.758 232.776L262.153 228.328Z" fill="url(#paint9_linear)"/>
<path d="M267.232 225.104C266.935 225.104 266.694 224.871 266.694 224.584C266.694 221.146 263.8 218.349 260.243 218.349C259.946 218.349 259.705 218.117 259.705 217.829C259.705 217.542 259.946 217.31 260.243 217.31C264.394 217.31 267.771 220.573 267.771 224.584C267.771 224.871 267.53 225.104 267.232 225.104Z" fill="#EEFDFF"/>
<path d="M264.896 224.994C264.599 224.994 264.358 224.761 264.358 224.474C264.358 222.184 262.43 220.321 260.061 220.321C259.764 220.321 259.522 220.088 259.522 219.801C259.522 219.514 259.764 219.281 260.061 219.281C263.024 219.281 265.435 221.611 265.435 224.474C265.435 224.761 265.194 224.994 264.896 224.994Z" fill="#EEFDFF"/>
<path d="M262.742 224.994C262.445 224.994 262.204 224.762 262.204 224.474C262.204 223.332 261.243 222.403 260.061 222.403C259.764 222.403 259.522 222.17 259.522 221.883C259.522 221.596 259.764 221.363 260.061 221.363C261.836 221.363 263.281 222.759 263.281 224.474C263.281 224.762 263.04 224.994 262.742 224.994Z" fill="#EEFDFF"/>
</g>
<circle cx="116.86" cy="77.8599" r="17.8599" fill="#A6E3EB"/>
<mask id="mask13" mask-type="alpha" maskUnits="userSpaceOnUse" x="99" y="60" width="36" height="36">
<circle cx="116.86" cy="77.8599" r="17.8599" fill="#A6E3EB"/>
</mask>
<g mask="url(#mask13)">
<path d="M119.068 84.532C118.155 84.532 116.151 83.0815 120.129 94.478C123.048 102.841 107.435 99.5257 109.785 94.478C112.649 88.3247 114.161 83.6037 114.559 82.0123C114.25 82.1007 113.464 81.7191 112.702 79.8987C110.315 74.1963 112.702 74.1963 118.14 70.8727C123.052 67.8698 123.444 81.084 123.046 82.9406C122.649 84.7972 120.527 84.532 119.068 84.532Z" fill="#F8B79B"/>
<mask id="mask14" mask-type="alpha" maskUnits="userSpaceOnUse" x="109" y="70" width="15" height="30">
<path d="M119.068 84.532C118.155 84.532 116.151 83.0815 120.129 94.478C123.048 102.841 107.435 99.5257 109.785 94.478C112.649 88.3247 114.161 83.6037 114.559 82.0123C114.25 82.1007 113.464 81.7191 112.702 79.8987C110.315 74.1963 112.702 74.1963 118.14 70.8727C123.052 67.8698 123.444 81.084 123.046 82.9406C122.649 84.7972 120.527 84.532 119.068 84.532Z" fill="#AD6E47"/>
</mask>
<g mask="url(#mask14)">
<path d="M120.552 85.5855C119.067 84.949 115.955 83.3311 114.85 82.2702C114.584 82.0492 114.16 81.6422 114.372 82.7031C115.751 86.7346 118.041 90.4832 119.013 91.1904C119.367 90.3506 120.552 86.6465 120.552 85.5855Z" fill="#ED9E7C"/>
<path d="M122.118 83.7442C124.134 80.031 119.333 74.3285 120.394 70.7479C120.924 70.5358 124.328 75.3894 125.699 77.9091L124.24 86.1312C122.604 86.8827 120.102 87.4574 122.118 83.7442Z" fill="#FFCCB6"/>
</g>
<path d="M115.323 80.4271C115.808 80.5564 115.586 82.1338 114.527 82.6816C112.804 81.3554 108.703 74.3872 108.825 71.8071C108.977 68.582 116.998 65.6709 119.328 65.1465C121.658 64.6221 122.595 70.9611 122.284 71.6051C121.973 72.2491 117.962 72.2064 117.4 72.4849C116.838 72.7633 115.076 73.0093 116.277 74.4441C117.237 75.592 116.339 76.0508 117.366 77.6422C117.131 77.8751 116.299 78.2761 115.854 77.3769C112.191 74.0818 113.334 79.8966 115.323 80.4271Z" fill="black"/>
<mask id="mask15" mask-type="alpha" maskUnits="userSpaceOnUse" x="108" y="65" width="15" height="18">
<path d="M115.323 80.4271C115.808 80.5564 115.586 82.1338 114.527 82.6816C112.804 81.3554 108.703 74.3872 108.825 71.8071C108.977 68.582 116.998 65.6709 119.328 65.1465C121.658 64.6221 122.595 70.9611 122.284 71.6051C121.973 72.2491 117.962 72.2064 117.4 72.4849C116.838 72.7633 115.076 73.0093 116.277 74.4441C117.237 75.592 116.339 76.0508 117.366 77.6422C117.131 77.8751 116.299 78.2761 115.854 77.3769C112.191 74.0818 113.334 79.8966 115.323 80.4271Z" fill="black"/>
</mask>
<g mask="url(#mask15)">
<path opacity="0.7" d="M117.265 82.9374C117.723 83.0596 117.513 84.5505 116.513 85.0682C114.884 83.8148 111.388 79.2395 111.502 76.8009C111.555 75.679 112.814 75.6221 114.671 73.4061C116.513 66.3902 122.366 63.7968 122.366 66.8429C122.366 69.1002 124.138 73.9904 123.844 74.5991C123.55 75.2078 119.759 75.1674 119.228 75.4306C118.697 75.6938 117.031 75.9262 118.166 77.2824C119.074 78.3674 118.225 78.801 119.196 80.3051C118.974 80.5253 118.188 80.9043 117.767 80.0545C114.305 76.94 115.385 82.436 117.265 82.9374Z" fill="#3D565F"/>
</g>
</g>
<rect x="147" y="71" width="62" height="4" rx="2" fill="#18C9DB"/>
<rect x="147" y="81.001" width="91" height="4" rx="2" fill="#18C9DB"/>
<circle cx="116.86" cy="127.86" r="17.8599" fill="#A6E3EB"/>
<mask id="mask16" mask-type="alpha" maskUnits="userSpaceOnUse" x="99" y="110" width="36" height="36">
<circle cx="116.86" cy="127.86" r="17.8599" fill="#A6E3EB"/>
</mask>
<g mask="url(#mask16)">
<path d="M119.074 139.408C118.582 139.357 117.582 138.464 119.094 144.831C120.204 149.504 111.967 146.849 113.515 144.257C115.402 141.097 116.48 138.635 116.783 137.799C116.611 137.829 116.209 137.58 115.899 136.556C114.928 133.347 116.216 133.48 119.333 131.989C122.149 130.643 121.626 137.792 121.309 138.771C120.991 139.75 119.861 139.489 119.074 139.408Z" fill="#FFB26A"/>
<mask id="mask17" mask-type="alpha" maskUnits="userSpaceOnUse" x="113" y="131" width="9" height="17">
<path d="M119.074 139.408C118.582 139.357 117.582 138.464 119.094 144.831C120.204 149.504 111.967 146.849 113.515 144.257C115.402 141.097 116.48 138.635 116.783 137.799C116.611 137.829 116.209 137.58 115.899 136.556C114.928 133.347 116.216 133.48 119.333 131.989C122.149 130.643 121.626 137.792 121.309 138.771C120.991 139.75 119.861 139.489 119.074 139.408Z" fill="#AD6E47"/>
</mask>
<g mask="url(#mask17)">
<path d="M119.816 140.059C119.05 139.634 117.461 138.588 116.924 137.955C116.794 137.821 116.587 137.577 116.643 138.161C117.162 140.412 118.189 142.561 118.674 142.997C118.912 142.564 119.757 140.632 119.816 140.059Z" fill="#F09A4B"/>
<path d="M120.763 139.153C122.056 137.262 119.784 133.92 120.555 132.047C120.853 131.962 122.419 134.769 123.018 136.204L121.775 140.558C120.851 140.872 119.469 141.043 120.763 139.153Z" fill="#FFC086"/>
</g>
<path d="M122.337 130.575C122.624 131.387 121.822 132.827 121.345 133.432C120.882 133.03 117.978 132.435 118.403 133.925C118.896 135.653 117.564 135.954 117.193 136.547C117.029 136.319 115.7 135.598 116.019 136.715C116.338 137.832 111.514 133.432 113.758 132C98.7344 133.345 96.5516 114.445 112.363 114.051C119.451 113.874 116.888 127.03 116.009 130.497C119.514 130.858 120.901 126.52 122.337 130.575Z" fill="#3D565F"/>
<mask id="mask18" mask-type="alpha" maskUnits="userSpaceOnUse" x="101" y="114" width="22" height="23">
<path d="M122.337 130.575C122.624 131.387 121.822 132.827 121.345 133.432C120.882 133.031 117.978 132.435 118.403 133.925C118.896 135.653 117.564 135.954 117.193 136.547C117.029 136.319 115.701 135.598 116.02 136.715C116.338 137.832 111.515 133.432 113.759 132C98.7349 133.345 96.5521 114.445 112.363 114.051C119.451 113.874 116.888 127.03 116.01 130.497C119.514 130.858 120.901 126.52 122.337 130.575Z" fill="#3D565F"/>
</mask>
<g mask="url(#mask18)">
<path d="M108.704 128.709C104.664 127.459 105.331 121.243 112.424 112.893L97.9259 118.699L102.047 130.493L112.285 139.001L117.015 139.243L124.006 130.509C123.635 130.151 122.756 129.637 122.204 130.443C121.514 131.451 119.756 132.06 118.825 132.172C117.895 132.284 117.969 133.169 117.214 133.839C116.992 134.035 116.889 133.651 116.052 133.601C115.215 133.551 115.94 132.67 114.854 131.178C114.303 130.42 110.446 129.066 108.704 128.709Z" fill="url(#paint10_linear)"/>
</g>
</g>
<rect x="147" y="121" width="62" height="4" rx="2" fill="#18C9DB"/>
<rect x="147" y="131.001" width="91" height="4" rx="2" fill="#18C9DB"/>
<circle r="17.8599" transform="matrix(-1 0 0 1 116.86 177.86)" fill="#A6E3EB"/>
<mask id="mask19" mask-type="alpha" maskUnits="userSpaceOnUse" x="99" y="160" width="36" height="36">
<circle r="17.8599" transform="matrix(-1 0 0 1 116.86 177.86)" fill="#A6E3EB"/>
</mask>
<g mask="url(#mask19)">
<path d="M123.782 187.962C120.605 186.974 120.398 184.219 120.42 183.524L119.345 183.928C119.322 185.541 119.385 189.172 119.815 190.785L119.816 190.788C120.246 192.402 120.915 194.91 122.057 195.873C126.009 195.255 128.973 189.575 123.782 187.962Z" fill="#28363C"/>
<path d="M120.8 184.025C119.95 184.025 118.083 182.674 121.788 193.286C124.506 201.073 109.968 197.986 112.156 193.286C114.823 187.557 116.231 183.161 116.601 181.679C116.313 181.761 115.582 181.406 114.873 179.711C112.65 174.401 114.873 174.401 119.935 171.306C124.51 168.51 124.875 180.814 124.504 182.543C124.134 184.272 122.158 184.025 120.8 184.025Z" fill="#AD6E47"/>
<mask id="mask20" mask-type="alpha" maskUnits="userSpaceOnUse" x="111" y="170" width="14" height="29">
<path d="M120.8 184.025C119.95 184.025 118.083 182.674 121.788 193.286C124.506 201.073 109.968 197.986 112.156 193.286C114.823 187.557 116.231 183.161 116.601 181.679C116.313 181.761 115.582 181.406 114.873 179.711C112.65 174.401 114.873 174.401 119.935 171.306C124.51 168.51 124.875 180.814 124.504 182.543C124.134 184.272 122.158 184.025 120.8 184.025Z" fill="#AD6E47"/>
</mask>
<g mask="url(#mask20)">
<path d="M122.181 185.006C120.798 184.413 117.9 182.907 116.871 181.919C116.624 181.713 116.229 181.334 116.427 182.322C117.711 186.076 119.843 189.566 120.748 190.225C121.078 189.443 122.181 185.994 122.181 185.006Z" fill="#704226"/>
<path d="M123.64 183.291C125.517 179.834 121.047 174.524 122.035 171.19C122.529 170.992 125.698 175.512 126.974 177.858L125.616 185.514C124.093 186.214 121.763 186.749 123.64 183.291Z" fill="#C87E50"/>
</g>
<path d="M110.834 185.984C103.302 190.923 109.328 195.739 114.168 197.468C118.614 195.492 114.455 191.569 115.033 187.96C115.243 186.642 116.691 183.049 116.761 182.033C116.856 180.668 115.881 180.087 115.65 179.933C115.247 179.664 114.91 177.934 115.65 177.464C116.39 176.993 116.056 179.091 117.132 178.822C118.207 178.553 115.897 172.771 121.07 173.399C122.535 173.577 124.032 173.17 123.923 171.718C123.182 161.84 112.567 172.307 112.33 171.718C109.723 165.239 108.325 165.3 105.03 168.326C102.395 170.746 107.253 174.87 111.321 173.87C111.142 174.721 109.97 174.994 110.34 177.464C110.694 179.825 113.653 184.136 110.834 185.984Z" fill="#28363C"/>
<mask id="mask21" mask-type="alpha" maskUnits="userSpaceOnUse" x="104" y="166" width="20" height="32">
<path d="M110.834 185.984C103.302 190.923 109.328 195.739 114.168 197.468C118.614 195.492 114.455 191.569 115.033 187.96C115.243 186.642 116.691 183.049 116.761 182.033C116.856 180.668 115.881 180.087 115.65 179.933C115.247 179.664 114.91 177.934 115.65 177.464C116.39 176.993 116.056 179.091 117.132 178.822C118.207 178.553 115.897 172.771 121.07 173.399C122.535 173.577 124.032 173.17 123.923 171.718C123.182 161.84 112.567 172.307 112.33 171.718C109.723 165.239 108.325 165.3 105.03 168.326C102.395 170.746 107.253 174.87 111.321 173.87C111.142 174.721 109.97 174.994 110.34 177.464C110.694 179.825 113.653 184.136 110.834 185.984Z" fill="#28363C"/>
</mask>
<g mask="url(#mask21)">
<path d="M110.572 187.465C108.406 188.62 113.18 197.989 113.782 198.711C117.874 197.327 123.929 184.144 131.872 173.025C139.814 161.905 128.923 163.939 122.485 166.346C122.967 166.827 123.749 168.331 123.027 170.497C122.124 173.205 118.334 171.761 117.431 173.025C116.529 174.288 116.348 175.01 114.363 175.371C112.377 175.732 113.28 178.079 114.363 180.786C115.446 183.494 113.28 186.021 110.572 187.465Z" fill="black"/>
</g>
</g>
<rect x="147" y="171" width="62" height="4" rx="2" fill="#18C9DB"/>
<rect x="147" y="181.001" width="91" height="4" rx="2" fill="#18C9DB"/>
<circle cx="116.86" cy="227.86" r="17.8599" fill="#A6E3EB"/>
<mask id="mask22" mask-type="alpha" maskUnits="userSpaceOnUse" x="99" y="210" width="36" height="36">
<circle cx="116.86" cy="227.86" r="17.8599" fill="#A6E3EB"/>
</mask>
<g mask="url(#mask22)">
<g clip-path="url(#clip6)">
<path d="M117.835 237.941C120.806 236.249 120.914 229.406 120.914 229.406C120.914 224.076 111.911 224.436 111.911 229.406C111.911 229.406 112.037 236.429 115.098 238.013C115.512 239.418 115.548 241.381 113.495 243.812C111.172 246.585 122.337 246.117 119.978 243.812C118.033 241.903 117.637 239.526 117.835 237.941Z" fill="#F8B79B"/>
</g>
<g clip-path="url(#clip7)">
<mask id="mask23" mask-type="alpha" maskUnits="userSpaceOnUse" x="111" y="225" width="10" height="21">
<path d="M117.835 237.941C120.806 236.249 120.914 229.406 120.914 229.406C120.914 224.076 111.911 224.436 111.911 229.406C111.911 229.406 112.037 236.429 115.098 238.013C115.512 239.418 115.548 241.381 113.495 243.812C111.172 246.585 122.337 246.117 119.978 243.812C118.033 241.903 117.637 239.526 117.835 237.941Z" fill="#AD6E47"/>
</mask>
<g mask="url(#mask23)">
<path d="M118.484 237.552C116.539 238.416 114.912 237.972 114.342 237.642L114.072 242.144C116.353 240.253 120.428 236.687 118.484 237.552Z" fill="#D07D4A"/>
</g>
</g>
<path d="M115.882 220.852C104.952 217.042 106.413 228.04 112.191 231.927C112.536 230.534 112.867 228.086 114.031 227.051C117.053 224.363 121.148 228.324 120.654 231.927C129.388 227.453 124.184 216.567 119.934 216.44C117.398 216.364 116.758 221.186 115.882 220.852Z" fill="#3D565F"/>
<mask id="mask24" mask-type="alpha" maskUnits="userSpaceOnUse" x="107" y="216" width="19" height="16">
<path d="M115.882 220.852C104.952 217.042 106.413 228.04 112.191 231.927C112.536 230.534 112.867 228.086 114.031 227.051C117.053 224.363 121.148 228.324 120.654 231.927C129.388 227.453 124.184 216.567 119.934 216.44C117.398 216.364 116.758 221.186 115.882 220.852Z" fill="#3D565F"/>
</mask>
<g mask="url(#mask24)">
<path d="M111.436 228.13C109.463 229.737 108.205 223.929 108.499 220.852L103.415 223.109L108.282 235.07L130.128 230.579L125.072 213.507C121.782 213.429 116.1 214.077 119.682 217.295C124.161 221.317 122.709 228.914 120.853 226.993C115.792 221.752 113.903 226.121 111.436 228.13Z" fill="url(#paint11_linear)"/>
</g>
</g>
<rect x="147" y="221" width="62" height="4" rx="2" fill="#18C9DB"/>
<rect x="147" y="231.001" width="91" height="4" rx="2" fill="#18C9DB"/>
<rect x="303" y="73" width="50.8922" height="29" rx="0.568627" fill="#EEFDFF"/>
<circle cx="328.588" cy="81.5298" r="5.11765" fill="#A6E3EB"/>
<rect x="308.971" y="93.4707" width="38.951" height="1.70588" rx="0.852941" fill="#A6E3EB"/>
<rect x="314.088" y="90.3438" width="28.7157" height="1.42157" rx="0.710784" fill="#A6E3EB"/>
<path d="M185.102 174.257L187.008 170.175C187.008 170.175 191.58 169.173 192.504 167.843C193.429 166.514 192.627 165.678 192.627 165.678C192.627 165.678 194.126 164.93 193.592 163.093C193.592 163.093 195.404 162.118 193.441 159.307C193.441 159.307 196.893 155.725 198.444 154.594C199.999 153.476 199.244 151.235 196.604 152.863C193.961 154.477 191.194 157.308 191.194 157.308C191.194 157.308 189.697 156.943 187.449 157.657C185.205 158.385 181.976 158.546 181.618 161.838C181.339 164.502 181.792 165.366 181.792 165.366L174.218 176.996L185.102 174.257Z" fill="#FFB26A"/>
<path d="M189.719 166.706C189.719 166.706 189.264 164.834 186.155 163.705C186.155 163.705 183.522 162.707 183.713 161.992C183.966 160.995 187.958 161.457 191.69 164.535C191.69 164.535 190.357 162.351 187.729 161.782C184.847 161.144 185.389 160.414 185.963 160.225C189.442 159.053 191.358 160.439 192.741 161.706C192.741 161.706 191.551 159.145 187.629 159.435C185.262 159.616 184.992 160.544 184.265 160.534C183.527 160.542 183.185 159.887 183.341 159.507C183.497 159.126 184.384 158.71 185.035 158.473C185.035 158.473 188.265 159.082 188.023 156.935C187.78 154.787 185.431 154.801 183.578 156.734C181.711 158.672 181.909 161.112 181.909 161.112C181.909 161.112 182.719 160.508 183.42 161.592C183.42 161.592 183.097 162.369 184.093 162.978C184.793 163.41 185.5 163.692 185.855 163.81C185.855 163.81 185.624 165.128 183.808 166.089C183.808 166.089 187.137 164.732 189.719 166.706Z" fill="#F09A4B"/>
<path d="M191.195 157.308C191.195 157.308 192.525 158.129 192.981 158.711C192.981 158.711 192.84 157.501 191.952 156.732L191.195 157.308Z" fill="#F09A4B"/>
<path d="M141.607 202.132C144.392 197.375 166.883 178.462 177.781 169.599L185.032 180.07C174.499 197.602 149.588 234.311 134.21 240.895C114.987 249.125 85.8025 180.957 92.8902 175.413C99.9779 169.87 119.037 178.551 141.607 202.132Z" fill="white"/>
<mask id="mask25" mask-type="alpha" maskUnits="userSpaceOnUse" x="91" y="169" width="95" height="73">
<path d="M141.607 202.132C144.392 197.375 166.883 178.462 177.781 169.599L185.032 180.07C174.499 197.602 149.588 234.311 134.21 240.895C114.987 249.125 85.8025 180.957 92.8902 175.413C99.9779 169.87 119.037 178.551 141.607 202.132Z" fill="white"/>
</mask>
<g mask="url(#mask25)">
<path d="M128.359 252.112C118.698 252.571 87.7588 202.953 94.4192 164.097L106.956 173.516C106.956 173.516 113.941 180.243 122.236 197.458C125.639 204.521 124.928 215.961 130.855 225.325C145.797 248.928 177.478 168.807 177.478 168.807C211.955 194.318 138.021 251.654 128.359 252.112Z" fill="url(#paint12_linear)"/>
</g>
<path d="M96.146 162.051C94.691 161.901 91.7332 159.254 96.2039 178.111C99.4838 191.948 75.1374 184.084 79.7125 176.409C85.29 167.052 88.4756 159.761 89.3713 157.285C88.8635 157.375 87.6743 156.636 86.7584 153.604C83.8893 144.103 87.695 144.496 96.9095 140.082C105.235 136.094 103.69 157.264 102.75 160.164C101.811 163.064 98.4717 162.291 96.146 162.051Z" fill="#FFB26A"/>
<mask id="mask26" mask-type="alpha" maskUnits="userSpaceOnUse" x="79" y="139" width="25" height="47">
<path d="M96.146 162.051C94.691 161.901 91.7332 159.254 96.2039 178.111C99.4838 191.948 75.1374 184.084 79.7125 176.409C85.29 167.052 88.4756 159.761 89.3713 157.285C88.8635 157.375 87.6743 156.636 86.7584 153.604C83.8893 144.103 87.695 144.496 96.9095 140.082C105.235 136.094 103.69 157.264 102.75 160.164C101.811 163.064 98.4717 162.291 96.146 162.051Z" fill="#AD6E47"/>
</mask>
<g mask="url(#mask26)">
<path d="M98.3366 163.978C96.0731 162.717 91.3774 159.621 89.7897 157.745C89.4032 157.348 88.793 156.628 88.957 158.357C90.4938 165.023 93.5287 171.387 94.963 172.677C95.6647 171.393 98.1623 165.672 98.3366 163.978Z" fill="#F09A4B"/>
<path d="M101.137 161.296C104.961 155.697 98.2433 145.799 100.523 140.255C101.404 140.003 106.033 148.315 107.804 152.565L104.128 165.457C101.397 166.388 97.3137 166.894 101.137 161.296Z" fill="#FFC086"/>
</g>
<path d="M105.789 135.896C106.639 138.299 104.267 142.564 102.858 144.357C101.488 143.166 92.9051 141.403 94.1609 145.814C95.6184 150.933 91.6803 151.822 90.5847 153.579C90.099 152.904 86.1729 150.769 87.1147 154.077C88.0566 157.385 73.7986 144.354 80.4311 140.116C36.0214 144.097 29.5691 88.1288 76.3071 86.9614C97.2588 86.4381 89.6819 125.398 87.0852 135.665C97.445 136.734 101.544 123.886 105.789 135.896Z" fill="#3D565F"/>
<mask id="mask27" mask-type="alpha" maskUnits="userSpaceOnUse" x="44" y="86" width="62" height="69">
<path d="M105.789 135.895C106.639 138.298 104.267 142.563 102.858 144.356C101.488 143.165 92.9051 141.402 94.1609 145.813C95.6184 150.932 91.6803 151.821 90.5847 153.578C90.099 152.903 86.1728 150.768 87.1147 154.076C88.0566 157.384 73.7986 144.353 80.4311 140.115C36.0214 144.096 29.5691 88.1278 76.3071 86.9605C97.2588 86.4372 89.6819 125.397 87.0852 135.664C97.445 136.733 101.544 123.885 105.789 135.895Z" fill="#3D565F"/>
</mask>
<g mask="url(#mask27)">
<path d="M65.4904 130.368C53.5488 126.666 55.5205 108.258 76.4883 83.5323L33.6309 100.725L45.8117 135.651L76.076 160.846L90.0582 161.562L110.722 135.699C109.627 134.639 107.029 133.115 105.397 135.503C103.356 138.489 98.1592 140.29 95.4087 140.622C92.6583 140.954 92.8773 143.575 90.6448 145.558C89.9893 146.14 89.6851 145.003 87.2117 144.854C84.7383 144.706 86.8803 142.099 83.6699 137.678C82.0401 135.434 70.64 131.424 65.4904 130.368Z" fill="url(#paint13_linear)"/>
</g>
<path d="M204.805 266.928C202.617 265.661 190.439 261.826 184.04 260.648C176.596 264.573 161.708 273.051 161.708 275.563C161.708 301.324 118.711 323.446 95.2039 352.883C85.3258 365.253 96.7707 355.238 107.349 354.06C159.78 348.224 229.195 281.058 204.805 266.928Z" fill="#DB4909"/>
<path d="M103.432 173.909C100.924 172.653 98.2079 171.162 94.4206 169.984C96.3795 179.797 89.6197 176.133 82.5675 171.162L68.0714 176.264C66.7655 179.666 66.2692 189.373 74.7318 200.991C83.1944 212.608 80.0551 239.847 77.9656 250.837C88.805 251.883 114.644 249.319 113.226 246.519C99.5138 219.438 113.226 209.233 115.185 199.813C116.064 195.587 109.668 192.598 106.174 185.684C101.88 177.186 105.16 174.775 103.432 173.909Z" fill="#B9D796"/>
<path d="M135.85 292.44C111.821 295.973 75.38 305 69.7383 292.44C65.6313 283.297 61.1478 270.711 69.7381 261.827C72.9481 258.507 76.0207 250.939 78.6496 248.874C122.138 239.847 184.254 248.333 189.133 248.874C228.02 253.192 107.547 378.793 106.174 372.508C103.432 359.948 115.185 313.635 135.85 292.44Z" fill="#F2712B"/>
<g clip-path="url(#clip8)">
<path d="M79.8899 359.182L65.4236 362.994C65.4236 362.994 64.3799 360.239 65.3285 359.772C66.277 359.306 80.1157 353.72 81.3778 352.993C82.613 352.309 79.8899 359.182 79.8899 359.182Z" fill="#27393F"/>
<path d="M80.3856 357.883C80.0968 358.666 79.8895 359.181 79.8895 359.181L65.4232 362.993C65.4232 362.993 65.3258 362.773 65.2377 362.443L80.3856 357.883Z" fill="black"/>
<path d="M82.3774 353.149L79.0094 362.913L71.8157 373.422C71.8157 373.422 75.0036 385.627 75.5286 386.157C75.6887 386.326 75.7152 386.425 75.6882 386.467C75.5985 386.562 75.1072 386.588 74.7236 386.444C73.9032 386.099 72.8884 385.171 71.9379 383.767C70.8096 382.129 68.225 378.198 68.259 373.882C68.2565 372.153 70.3895 370.239 71.8688 368.748C72.2363 368.402 72.595 368.024 72.9179 367.655C73.1242 367.423 73.3393 367.224 73.5456 366.992C75.393 365.013 77.6012 362.091 78.211 356.632C78.4392 355.335 79.0861 354.314 79.9999 353.575C81.6741 352.525 82.3774 353.149 82.3774 353.149Z" fill="#27393F"/>
<path d="M65.8741 359.52C65.5669 360.52 65.8924 361.88 66.1747 362.792L65.4241 362.994C65.4241 362.994 64.3805 360.238 65.3286 359.772C65.3913 359.72 65.6057 359.662 65.8741 359.52Z" fill="black"/>
<path d="M82.5677 352.568C86.6597 351.791 91.2756 352.973 95.464 352.774C94.1106 356.914 96.6028 352.795 96.6289 357.129C94.7982 357.021 87.909 365.138 87.909 365.138C83.3869 373.688 78.3257 375.627 78.1903 383.925C78.1331 387.294 75.3856 386.337 75.3856 386.337C75.3856 386.337 70.3826 381.82 69.4278 374.381C69.315 371.093 71.4277 369.82 73.2036 367.86C74.9436 365.911 78.1786 363.101 78.8984 356.907C79.2281 354.7 80.3867 353.012 82.5677 352.568Z" fill="#3D565F"/>
<path opacity="0.2" d="M73.167 367.869C74.9071 365.919 78.142 363.11 78.8618 356.915C79.2361 354.732 80.3859 353.012 82.54 352.61C82.8707 352.556 83.3978 352.521 83.9695 352.508C81.4172 354.288 80.5358 358.302 78.7137 363.097C76.4587 368.998 71.2262 370.932 71.2192 375.205C71.2336 378.555 74.8837 384.176 76.4473 386.439C75.8575 386.527 75.349 386.346 75.349 386.346C75.349 386.346 70.346 381.829 69.3912 374.39C69.2784 371.102 71.4269 369.819 73.167 367.869Z" fill="black"/>
</g>
<g clip-path="url(#clip9)">
<path d="M98.535 386.638L88.2642 404.257C88.2642 404.257 84.3079 402.435 84.7517 401.059C85.1956 399.683 92.9643 380.85 93.4419 378.91C93.9379 377.039 98.535 386.638 98.535 386.638Z" fill="#27393F"/>
<path d="M97.6486 384.842C98.1941 385.916 98.5348 386.638 98.5348 386.638L88.264 404.257C88.264 404.257 87.9332 404.124 87.4966 403.872L97.6486 384.842Z" fill="black"/>
<path d="M94.5962 378.12L101.622 391.281L105.653 408.832C105.653 408.832 121.756 418.263 122.838 418.305C123.175 418.325 123.306 418.401 123.325 418.47C123.336 418.652 122.878 419.145 122.345 419.362C121.168 419.789 119.179 419.805 116.749 419.274C113.894 418.672 107.167 417.114 102.622 412.677C100.785 410.915 100.865 406.938 100.747 404.012C100.744 403.31 100.697 402.583 100.625 401.9C100.583 401.468 100.585 401.061 100.543 400.628C100.272 396.856 99.3566 391.778 94.1689 385.628C93.019 384.089 92.5761 382.433 92.6959 380.811C93.2392 378.151 94.5962 378.12 94.5962 378.12Z" fill="#27393F"/>
<path d="M85.0238 400.284C85.7808 401.596 87.5456 402.675 88.7933 403.339L88.264 404.257C88.264 404.257 84.3076 402.435 84.7514 401.059C84.7582 400.947 84.9094 400.684 85.0238 400.284Z" fill="black"/>
<path d="M94.168 377.347C97.3927 372.671 103.215 369.497 107.148 365.319C110.201 370.828 108.297 364.259 112.922 368.658C110.995 370.284 112.79 385.107 112.79 385.107C117.385 398.123 114.433 404.905 123.103 413.502C126.62 416.994 122.886 418.625 122.886 418.625C122.886 418.625 113.143 418.763 104.306 412.077C100.706 408.829 101.446 405.525 101.125 401.84C100.779 398.199 100.999 392.261 95.1396 385.257C93.125 382.692 92.481 379.87 94.168 377.347Z" fill="#3D565F"/>
<path opacity="0.2" d="M101.1 401.884C100.753 398.243 100.974 392.306 95.1144 385.301C93.1687 382.718 92.481 379.871 94.1865 377.417C94.457 377.048 94.9409 376.512 95.4936 375.957C94.8557 380.195 98.2417 385.127 101.526 391.751C105.555 399.912 102.428 406.851 106.955 411.219C110.523 414.624 120.099 416.897 124.047 417.722C123.556 418.372 122.861 418.669 122.861 418.669C122.861 418.669 113.118 418.807 104.281 412.122C100.681 408.873 101.446 405.525 101.1 401.884Z" fill="black"/>
</g>
<path d="M127.171 249.306C126.628 249.851 126.628 250.718 127.171 251.263L136.093 260.2C136.637 260.745 137.503 260.745 138.046 260.2L142.13 256.11C142.674 255.565 142.674 254.698 142.13 254.153L133.208 245.215C132.664 244.67 131.799 244.67 131.255 245.215L127.171 249.306Z" fill="white"/>
<path d="M126.872 247.183C126.417 248.839 125.74 250.696 124.032 251.229C125.441 251.152 126.939 251.541 128.204 252.274C128.959 253.03 129.88 253.953 129.88 253.953L129.758 253.942L130.534 255.231C130.534 255.231 132.698 255.131 134.196 257.032C135.683 258.967 133.619 259.478 133.619 259.478C133.619 259.478 129.025 257.566 125.929 256.221C122.833 254.876 121.99 252.519 121.99 252.519L108.918 253.341L115.321 246.927L122.234 247.427C123.754 246.216 125.363 245.315 126.861 244.748C127.105 245.549 127.116 246.382 126.872 247.183Z" fill="#FFB26A"/>
<path d="M133.219 245.204C132.653 244.637 131.843 244.626 131.266 245.204C130.689 245.782 128.048 248.428 127.349 249.128C126.583 249.895 126.539 250.607 127.349 251.418C127.526 251.596 127.848 251.919 128.203 252.274C126.938 251.541 125.44 251.152 124.031 251.229C127.182 249.295 127.116 245.538 126.85 244.737C129.901 243.57 132.531 243.715 133.219 245.204Z" fill="#F09A4B"/>
<path d="M131.832 247.416C131.455 248.083 131.599 249.072 133.375 249.094C134.151 249.094 136.071 248.061 136.071 248.061L136.582 248.572C136.582 248.572 138.124 247.694 137.492 246.638C135.849 243.859 132.198 246.738 131.832 247.416Z" fill="#FFB26A"/>
<path d="M139.156 251.151C139.156 251.151 140.754 249.95 139.733 248.75C138.712 247.549 135.006 248.149 135.549 249.672C136.082 251.206 138.634 250.606 138.634 250.606L139.167 251.14L139.156 251.151Z" fill="#FFB26A"/>
<path d="M134.239 246.227C134.239 246.227 135.427 245.127 134.583 244.171C133.374 242.782 130.323 244.527 131 245.716C131.743 247.016 133.807 245.794 133.807 245.794L134.239 246.227Z" fill="#FFB26A"/>
<path d="M139.245 251.241C139.245 251.241 141.698 250.207 142.918 251.808C144.139 253.409 142.663 255.087 141.431 254.231C140.199 253.375 140.421 252.419 140.421 252.419L139.245 251.241Z" fill="#FFB26A"/>
<path d="M74.5571 229.97C80.061 230.008 107.657 240.064 120.767 245.087L115.341 256.613C94.9188 256.241 50.7289 252.984 37.3481 242.934C20.6222 230.371 64.9594 170.968 73.2958 174.345C81.6322 177.723 83.6568 198.599 74.5571 229.97Z" fill="white"/>
<mask id="mask28" mask-type="alpha" maskUnits="userSpaceOnUse" x="33" y="174" width="88" height="83">
<path d="M74.5571 229.97C80.061 230.008 107.657 240.064 120.767 245.087L115.341 256.613C94.9188 256.241 50.7289 252.984 37.3481 242.934C20.6222 230.371 64.9594 170.968 73.2958 174.345C81.6322 177.723 83.6568 198.599 74.5571 229.97Z" fill="white"/>
</mask>
<g mask="url(#mask28)">
<path d="M66.5995 232.372C61.3724 224.219 71.8411 191.533 78.2685 180.38L128.369 249.01C106.925 244.843 71.8267 240.525 66.5995 232.372Z" fill="url(#paint14_linear)"/>
</g>
<path d="M258.375 213L248.41 226.394H257.991L258.375 213Z" fill="#11A8B8"/>
<path d="M278.964 213H324.369L326.722 247.527H278.964V213Z" fill="#A6E3EB"/>
<path d="M278.964 213H258.376L257.31 247.527H278.964V213Z" fill="#18C9DB"/>
<mask id="mask29" mask-type="alpha" maskUnits="userSpaceOnUse" x="278" y="213" width="49" height="35">
<path d="M278.964 213H324.369L326.722 247.527H278.964V213Z" fill="#D2E3F2"/>
</mask>
<g mask="url(#mask29)">
<path d="M285.025 230.264L278.667 217.275V213H326.128V230.264H285.025Z" fill="#18C9DB"/>
</g>
<path d="M278.964 213H323.94L332.358 226.394H287.382L278.964 213Z" fill="#EEFDFF"/>
<path d="M275.321 250.886H336.803L339.988 297.638H275.321V250.886Z" fill="#A6E3EB"/>
<mask id="mask30" mask-type="alpha" maskUnits="userSpaceOnUse" x="275" y="250" width="65" height="48">
<path d="M275.321 250.886H336.803L339.988 297.638H275.321V250.886Z" fill="#D2E3F2"/>
</mask>
<g mask="url(#mask30)">
<path opacity="0.5" d="M274.919 256.528V249.878V245.848H337.578V256.528H274.919Z" fill="#18C9DB"/>
</g>
<path d="M275.321 250.886H247.445L246 297.638H275.321V250.886Z" fill="#18C9DB"/>
<path d="M246 247.707C246 247.46 246.201 247.259 246.449 247.259H275.321V250.886H246.449C246.201 250.886 246 250.685 246 250.437V247.707Z" fill="#11A8B8"/>
<path d="M338.783 247.707C338.783 247.46 338.582 247.259 338.335 247.259H275.321V250.886H338.335C338.582 250.886 338.783 250.685 338.783 250.437V247.707Z" fill="#16B9CA"/>
<mask id="mask31" mask-type="alpha" maskUnits="userSpaceOnUse" x="246" y="250" width="30" height="48">
<path d="M275.321 250.887H247.445L246 297.639H275.321V250.887Z" fill="#A5BDD6"/>
</mask>
<g mask="url(#mask31)">
<rect x="246" y="249.274" width="29.3212" height="7.25466" fill="#16B9CA"/>
</g>
<rect x="280.944" y="277.486" width="24.9029" height="12.8972" fill="white"/>
<defs>
<linearGradient id="paint0_linear" x1="376.161" y1="119.395" x2="367.485" y2="141.476" gradientUnits="userSpaceOnUse">
<stop stop-color="#1E2B2F"/>
<stop offset="1" stop-color="#1E2B2F" stop-opacity="0"/>
</linearGradient>
<linearGradient id="paint1_linear" x1="365.845" y1="184.321" x2="370.318" y2="200.112" gradientUnits="userSpaceOnUse">
<stop offset="0.338542" stop-color="#293A40" stop-opacity="0"/>
<stop offset="1" stop-color="#293A40"/>
</linearGradient>
<linearGradient id="paint2_linear" x1="250.148" y1="71.4108" x2="253.888" y2="68.7139" gradientUnits="userSpaceOnUse">
<stop stop-color="#49B26A"/>
<stop offset="1" stop-color="#B9D796"/>
</linearGradient>
<linearGradient id="paint3_linear" x1="260.847" y1="81.7426" x2="264.576" y2="79.0452" gradientUnits="userSpaceOnUse">
<stop stop-color="#49B26A"/>
<stop offset="1" stop-color="#B9D796"/>
</linearGradient>
<linearGradient id="paint4_linear" x1="250.148" y1="121.411" x2="253.888" y2="118.714" gradientUnits="userSpaceOnUse">
<stop stop-color="#49B26A"/>
<stop offset="1" stop-color="#B9D796"/>
</linearGradient>
<linearGradient id="paint5_linear" x1="260.847" y1="131.743" x2="264.576" y2="129.045" gradientUnits="userSpaceOnUse">
<stop stop-color="#49B26A"/>
<stop offset="1" stop-color="#B9D796"/>
</linearGradient>
<linearGradient id="paint6_linear" x1="250.148" y1="171.411" x2="253.888" y2="168.714" gradientUnits="userSpaceOnUse">
<stop stop-color="#49B26A"/>
<stop offset="1" stop-color="#B9D796"/>
</linearGradient>
<linearGradient id="paint7_linear" x1="260.847" y1="181.743" x2="264.576" y2="179.045" gradientUnits="userSpaceOnUse">
<stop stop-color="#49B26A"/>
<stop offset="1" stop-color="#B9D796"/>
</linearGradient>
<linearGradient id="paint8_linear" x1="250.148" y1="221.411" x2="253.888" y2="218.714" gradientUnits="userSpaceOnUse">
<stop stop-color="#49B26A"/>
<stop offset="1" stop-color="#B9D796"/>
</linearGradient>
<linearGradient id="paint9_linear" x1="260.847" y1="231.743" x2="264.576" y2="229.045" gradientUnits="userSpaceOnUse">
<stop stop-color="#49B26A"/>
<stop offset="1" stop-color="#B9D796"/>
</linearGradient>
<linearGradient id="paint10_linear" x1="122.985" y1="119.531" x2="115.031" y2="139.775" gradientUnits="userSpaceOnUse">
<stop stop-color="#1E2B2F"/>
<stop offset="1" stop-color="#1E2B2F" stop-opacity="0"/>
</linearGradient>
<linearGradient id="paint11_linear" x1="113.527" y1="219.464" x2="117.628" y2="233.942" gradientUnits="userSpaceOnUse">
<stop offset="0.338542" stop-color="#293A40" stop-opacity="0"/>
<stop offset="1" stop-color="#293A40"/>
</linearGradient>
<linearGradient id="paint12_linear" x1="107.999" y1="192.042" x2="173.048" y2="229.99" gradientUnits="userSpaceOnUse">
<stop stop-color="#CAEEF4"/>
<stop offset="1" stop-color="#CAEEF4" stop-opacity="0"/>
</linearGradient>
<linearGradient id="paint13_linear" x1="107.705" y1="103.19" x2="84.1196" y2="163.108" gradientUnits="userSpaceOnUse">
<stop stop-color="#1E2B2F"/>
<stop offset="1" stop-color="#1E2B2F" stop-opacity="0"/>
</linearGradient>
<linearGradient id="paint14_linear" x1="108.349" y1="184.672" x2="107.949" y2="260.081" gradientUnits="userSpaceOnUse">
<stop stop-color="#CAEEF4"/>
<stop offset="1" stop-color="#CAEEF4" stop-opacity="0"/>
</linearGradient>
<clipPath id="clip0">
<rect width="9.82053" height="22.0176" fill="white" transform="translate(364.082 190.941)"/>
</clipPath>
<clipPath id="clip1">
<rect width="9.82053" height="22.0176" fill="white" transform="translate(364.082 190.941)"/>
</clipPath>
<clipPath id="clip2">
<rect width="18.3803" height="17.7465" fill="white" transform="translate(249.493 66.915)"/>
</clipPath>
<clipPath id="clip3">
<rect width="18.3803" height="17.7465" fill="white" transform="translate(249.493 116.915)"/>
</clipPath>
<clipPath id="clip4">
<rect width="18.3803" height="17.7465" fill="white" transform="translate(249.493 166.915)"/>
</clipPath>
<clipPath id="clip5">
<rect width="18.3803" height="17.7465" fill="white" transform="translate(249.493 216.915)"/>
</clipPath>
<clipPath id="clip6">
<rect width="9.00377" height="20.1865" fill="white" transform="translate(111.911 225.534)"/>
</clipPath>
<clipPath id="clip7">
<rect width="9.00377" height="20.1865" fill="white" transform="translate(111.911 225.534)"/>
</clipPath>
<clipPath id="clip8">
<rect width="31.1613" height="32.1791" fill="white" transform="matrix(-0.258388 -0.966041 -0.96581 0.25925 102.6 379.454)"/>
</clipPath>
<clipPath id="clip9">
<rect width="46.0982" height="43.8678" fill="white" transform="matrix(-0.865638 -0.50067 -0.499331 0.866411 142.517 385.775)"/>
</clipPath>
</defs>
</svg>
